<svg xmlns="http://www.w3.org/2000/svg" xmlns:xlink="http://www.w3.org/1999/xlink" version="1.1" x="0px" y="0px" viewBox="0 0 100 125" style="enable-background:new 0 0 100 100;" xml:space="preserve"><path d="M49.5,44.6c-2.9,0-5.3,2.4-5.3,5.3c0,2.9,2.4,5.3,5.3,5.3c2.9,0,5.3-2.4,5.3-5.3C54.8,47,52.4,44.6,49.5,44.6z"/><path d="M73.3,44.6c-2.9,0-5.3,2.4-5.3,5.3c0,2.9,2.4,5.3,5.3,5.3c2.9,0,5.3-2.4,5.3-5.3C78.6,47,76.2,44.6,73.3,44.6z"/><path d="M25.8,44.6c-2.9,0-5.4,2.4-5.4,5.3c0,2.9,2.4,5.3,5.4,5.3c2.9,0,5.4-2.4,5.4-5.3C31.1,47,28.7,44.6,25.8,44.6z"/></svg>