<svg xmlns="http://www.w3.org/2000/svg" xmlns:xlink="http://www.w3.org/1999/xlink" version="1.1" x="0px" y="0px" viewBox="0 0 65 81.25" enable-background="new 0 0 65 65" xml:space="preserve"><g><path d="M54.4,20.2c-1.9,0-3.5,1.6-3.5,3.5c0,1.9,1.6,3.5,3.5,3.5c1.9,0,3.5-1.6,3.5-3.5C57.9,21.8,56.3,20.2,54.4,20.2z    M54.4,25.7c-1.1,0-2-0.9-2-2c0-1.1,0.9-2,2-2s2,0.9,2,2C56.4,24.8,55.5,25.7,54.4,25.7z"/><path d="M57.8,50.8h4.9v-1.5h-4.9V37c4.3-1.4,7.4-5.5,7.4-10.3c0-6-4.9-10.9-10.9-10.9c-6,0-10.9,4.9-10.9,10.9   c0,0.6,0.1,1.1,0.1,1.6l-5.2-1.9L32,42.3h-7.7l-6.4-15.8l-9.1,3.2c-2.5,0.9-4.5,2.6-5.8,4.8c-1.3,2.2-1.9,4.3-1.9,6.5   c-0.1,0.7-1,7.4-1.3,15.5l0,0.8h51.2v7.5h1.5V37.4c0.6,0.1,1.3,0.2,2,0.2s1.3-0.1,2-0.2v25.3h1.5v-2.9h3.4v-1.5h-3.4v-3h6.3v-1.5   h-6.3V50.8z M50.9,55.8H1.3c0.4-8.1,1.3-14.6,1.3-14.7l0-0.1c0-1.9,0.6-3.8,1.7-5.8c1.1-1.9,2.8-3.4,5-4.1l7.7-2.8l6.3,15.4H33   l6.3-15.4l4.7,1.7c1.1,3.3,3.6,5.8,6.9,6.9V55.8z M45,26.7c0-5.2,4.2-9.4,9.4-9.4c5.2,0,9.4,4.2,9.4,9.4c0,5.2-4.2,9.4-9.4,9.4   C49.2,36.1,45,31.9,45,26.7z"/><path d="M28.2,24.6c6.7,0,12.2-5.5,12.2-12.2S34.9,0.1,28.2,0.1C21.4,0.1,16,5.6,16,12.4S21.4,24.6,28.2,24.6z M28.2,1.6   c5.9,0,10.7,4.8,10.7,10.7s-4.8,10.7-10.7,10.7c-5.9,0-10.7-4.8-10.7-10.7S22.3,1.6,28.2,1.6z"/></g></svg>