<svg xmlns="http://www.w3.org/2000/svg" data-name="Layer 1" viewBox="0 0 100 125" x="0px" y="0px"><title>icons_books_3</title><path d="M54.22,27.24a1,1,0,0,0,.5-.14,43.47,43.47,0,0,1,27.4-5.47,1,1,0,1,0,.26-2,45.46,45.46,0,0,0-28.66,5.73,1,1,0,0,0,.5,1.86Z"/><path d="M54.22,35a1,1,0,0,0,.5-.14,43.47,43.47,0,0,1,27.4-5.47,1,1,0,1,0,.26-2,45.47,45.47,0,0,0-28.66,5.73,1,1,0,0,0,.5,1.86Z"/><path d="M54.22,42.85a1,1,0,0,0,.5-.14,43.47,43.47,0,0,1,27.4-5.47,1,1,0,1,0,.26-2A45.47,45.47,0,0,0,53.72,41a1,1,0,0,0,.5,1.86Z"/><path d="M54.22,50.66a1,1,0,0,0,.5-.14A43.46,43.46,0,0,1,82.12,45a1,1,0,1,0,.26-2,45.47,45.47,0,0,0-28.66,5.73,1,1,0,0,0,.5,1.86Z"/><path d="M54.22,58.46a1,1,0,0,0,.5-.14,43.45,43.45,0,0,1,27.4-5.47,1,1,0,1,0,.26-2A45.47,45.47,0,0,0,53.72,56.6a1,1,0,0,0,.5,1.86Z"/><path d="M54.22,66.27a1,1,0,0,0,.5-.14,43.47,43.47,0,0,1,27.4-5.47,1,1,0,1,0,.26-2A45.48,45.48,0,0,0,53.72,64.4a1,1,0,0,0,.5,1.86Z"/><path d="M97.84,25.94H93.9V21.58a1,1,0,0,0-1-1H88.24V14.13a1,1,0,0,0-.78-1l-1.14-.25a45.4,45.4,0,0,0-35.27,6.7l-1.34.91a12.1,12.1,0,0,1-9.23-7.2L35.95,2.57A1,1,0,0,0,34,3V18.7a31.58,31.58,0,0,1-11.61-7.92L17.14,5.08a1,1,0,0,0-1.73.68V20.58H7.1a1,1,0,0,0-1,1v4.36H2a1,1,0,0,0-1,1V84.27a1,1,0,0,0,1,1H97.84a1,1,0,0,0,1-1V26.94A1,1,0,0,0,97.84,25.94ZM87,71.49a1,1,0,0,0,1.24-1V22.58H91.9V77H53.32A43.4,43.4,0,0,1,87,71.49Zm-37.24,8a4.76,4.76,0,0,1,4.64,3.75H45.12A4.76,4.76,0,0,1,49.76,79.52Zm2.42-58.26a43.43,43.43,0,0,1,33.71-6.41l.36.08V69.26A45.43,45.43,0,0,0,51.9,75.49l-.9.59v-54ZM36,7.89l2.63,6.2a14.12,14.12,0,0,0,10.27,8.32V76.76a12.11,12.11,0,0,1-8.43-7.06L36,59.14Zm-18.62.42L21,12.14A33.6,33.6,0,0,0,34,20.83V59.35a1,1,0,0,0,.08.39l4.55,10.74a14.1,14.1,0,0,0,6.07,6.77,31.5,31.5,0,0,1-22.3-10.08l-5-5.42ZM8.1,22.58h7.31V62.14a1,1,0,0,0,.27.68L21,68.53A33.47,33.47,0,0,0,33.35,77H8.1ZM3,27.94H6.1V78a1,1,0,0,0,1,1H40.46v-.08a33.47,33.47,0,0,0,4.79.38,6.73,6.73,0,0,0-2.16,4H3ZM96.84,83.27H56.43A6.74,6.74,0,0,0,53.92,79h39a1,1,0,0,0,1-1v-50h2.94Z"/></svg>