<svg xmlns="http://www.w3.org/2000/svg" xmlns:xlink="http://www.w3.org/1999/xlink" version="1.1" x="0px" y="0px" viewBox="0 0 100 125" style="enable-background:new 0 0 100 100;" xml:space="preserve"><g><path d="M21.6572266,46.9477539c3.4814453,0,6.3134766-2.8325195,6.3134766-6.3139648   c0-3.4819336-2.8320313-6.3144531-6.3134766-6.3144531s-6.3144531,2.8325195-6.3144531,6.3144531   C15.3427734,44.1152344,18.1757813,46.9477539,21.6572266,46.9477539z M21.6572266,36.8193359   c2.1025391,0,3.8134766,1.7109375,3.8134766,3.8144531c0,2.1030273-1.7109375,3.8139648-3.8134766,3.8139648   c-2.1035156,0-3.8144531-1.7109375-3.8144531-3.8139648C17.8427734,38.5302734,19.5537109,36.8193359,21.6572266,36.8193359z"/><path d="M21.6572266,47.8354492c-5.7382813,0-10.4072266,4.668457-10.4072266,10.4067383v9.1860352   c0,0.6904297,0.5595703,1.25,1.25,1.25h18.3144531c0.6904297,0,1.25-0.5595703,1.25-1.25v-9.1860352   C32.0644531,52.5039063,27.3955078,47.8354492,21.6572266,47.8354492z M29.5644531,66.1782227H13.75v-7.9360352   c0-4.3598633,3.546875-7.9067383,7.9072266-7.9067383s7.9072266,3.546875,7.9072266,7.9067383V66.1782227z"/><path d="M72.0292969,40.6337891c0,3.4814453,2.8320313,6.3139648,6.3134766,6.3139648s6.3144531-2.8325195,6.3144531-6.3139648   c0-3.4819336-2.8330078-6.3144531-6.3144531-6.3144531S72.0292969,37.1518555,72.0292969,40.6337891z M82.1572266,40.6337891   c0,2.1030273-1.7109375,3.8139648-3.8144531,3.8139648c-2.1025391,0-3.8134766-1.7109375-3.8134766-3.8139648   c0-2.1035156,1.7109375-3.8144531,3.8134766-3.8144531C80.4462891,36.8193359,82.1572266,38.5302734,82.1572266,40.6337891z"/><path d="M78.3427734,47.8354492c-5.7382813,0-10.4072266,4.668457-10.4072266,10.4067383v9.1860352   c0,0.6904297,0.5595703,1.25,1.25,1.25H87.5c0.6904297,0,1.25-0.5595703,1.25-1.25v-9.1860352   C88.75,52.5039063,84.0810547,47.8354492,78.3427734,47.8354492z M86.25,66.1782227H70.4355469v-7.9360352   c0-4.3598633,3.546875-7.9067383,7.9072266-7.9067383S86.25,53.8823242,86.25,58.2421875V66.1782227z"/><path d="M41.3847656,42.9345703c0,4.75,3.8652344,8.6147461,8.6152344,8.6147461s8.6152344-3.8647461,8.6152344-8.6147461   c0-4.7504883-3.8652344-8.6152344-8.6152344-8.6152344S41.3847656,38.184082,41.3847656,42.9345703z M50,36.8193359   c3.3720703,0,6.1152344,2.7431641,6.1152344,6.1152344c0,3.371582-2.7431641,6.1147461-6.1152344,6.1147461   s-6.1152344-2.7431641-6.1152344-6.1147461C43.8847656,39.5625,46.6279297,36.8193359,50,36.8193359z"/><path d="M50,53.9755859c-8.0322266,0-14.5673828,6.534668-14.5673828,14.5668945v13.3588867c0,0.6904297,0.5595703,1.25,1.25,1.25   h26.6347656c0.6904297,0,1.25-0.5595703,1.25-1.25V68.5424805C64.5673828,60.5102539,58.0322266,53.9755859,50,53.9755859z    M62.0673828,80.6513672H37.9326172V68.5424805c0-6.6538086,5.4130859-12.0668945,12.0673828-12.0668945   s12.0673828,5.4130859,12.0673828,12.0668945V80.6513672z"/><path d="M48.3964844,25.4746094c0-4.7563477-5.0966797-8.6259766-11.3623047-8.6259766   c-6.2646484,0-11.3613281,3.8696289-11.3613281,8.6259766c0,1.7612305,0.6728516,3.4257813,1.953125,4.8525391   l-0.8535156,3.2294922c-0.1230469,0.4697266,0.0351563,0.9682617,0.4082031,1.2792969   c0.2294922,0.190918,0.5136719,0.2900391,0.8007813,0.2900391c0.1796875,0,0.3613281-0.0385742,0.5302734-0.1181641   l3.6796875-1.7241211c1.5107422,0.5356445,3.1728516,0.8173828,4.8427734,0.8173828   C43.2998047,34.1010742,48.3964844,30.2314453,48.3964844,25.4746094z M31.609375,30.7958984l-1.7363281,0.8134766   l0.3505859-1.3266602c0.1162109-0.4418945-0.0175781-0.9116211-0.3486328-1.2260742   c-0.7763672-0.7368164-1.7021484-1.9560547-1.7021484-3.5820313c0-3.3779297,3.9755859-6.1259766,8.8613281-6.1259766   c4.8867188,0,8.8623047,2.7480469,8.8623047,6.1259766s-3.9755859,6.1264648-8.8623047,6.1264648   c-1.546875,0-3.0771484-0.2880859-4.4267578-0.8325195C32.2851563,30.6391602,31.9248047,30.6484375,31.609375,30.7958984z"/><path d="M81.1025391,25.4746094c0-4.7563477-5.0966797-8.6259766-11.3623047-8.6259766   c-6.2646484,0-11.3613281,3.8696289-11.3613281,8.6259766c0,1.7612305,0.6728516,3.4257813,1.953125,4.8525391   l-0.8535156,3.2294922c-0.1230469,0.4697266,0.0351563,0.9682617,0.4082031,1.2792969   c0.2294922,0.190918,0.5136719,0.2900391,0.800766,0.2900391c0.1797028,0,0.3613434-0.0385742,0.5302887-0.1181641   l3.6796875-1.7241211c1.5107422,0.5356445,3.1728516,0.8173828,4.8427734,0.8173828   C76.0058594,34.1010742,81.1025391,30.2314453,81.1025391,25.4746094z M64.3154297,30.7958984l-1.7363281,0.8134766   l0.3505859-1.3266602c0.1162109-0.4418945-0.0175781-0.9116211-0.3486328-1.2260742   c-0.7763672-0.7368164-1.7021484-1.9560547-1.7021484-3.5820313c0-3.3779297,3.9755859-6.1259766,8.8613281-6.1259766   c4.8867188,0,8.8623047,2.7480469,8.8623047,6.1259766s-3.9755859,6.1264648-8.8623047,6.1264648   c-1.546875,0-3.0771484-0.2880859-4.4267578-0.8325195C64.9912109,30.6391602,64.6308594,30.6484375,64.3154297,30.7958984z"/></g></svg>