<svg xmlns="http://www.w3.org/2000/svg" xmlns:xlink="http://www.w3.org/1999/xlink" version="1.1" x="0px" y="0px" viewBox="0 0 100 125" enable-background="new 0 0 100 100" xml:space="preserve"><path fill="#000000" d="M55.631,56.185c-0.23,0-0.424,0.114-0.583,0.27l-0.022-0.023c-0.023,0.022-2.351,2.237-6.166,2.237  s-6.143-2.215-6.165-2.237l-0.022,0.023c-0.159-0.155-0.353-0.27-0.583-0.27c-4.53,0-8.092,1.462-10.589,4.346  c-5.273,6.091-3.871,16.283-3.808,16.714c0.061,0.425,0.426,0.741,0.856,0.741h40.623c0.43,0,0.795-0.316,0.856-0.741  c0.063-0.431,1.466-10.623-3.808-16.714C63.723,57.646,60.161,56.185,55.631,56.185z M48.861,60.399  c1.911,0,3.475-0.467,4.681-1.011l-4.681,9.697l-4.681-9.697C45.386,59.932,46.95,60.399,48.861,60.399z M68.395,76.255H29.327  c-0.207-2.39-0.502-9.994,3.488-14.596c2.055-2.371,4.992-3.626,8.737-3.736l6.53,13.528c0.289,0.598,1.269,0.598,1.558,0  l6.53-13.528c3.745,0.109,6.683,1.365,8.737,3.736C68.898,66.261,68.602,73.864,68.395,76.255z M48.861,53.264  c6.325,0,11.471-5.146,11.471-11.471c0-6.325-5.146-11.472-11.471-11.472S37.39,35.468,37.39,41.793  C37.39,48.118,42.535,53.264,48.861,53.264z M48.861,32.052c5.371,0,9.741,4.37,9.741,9.741c0,5.371-4.369,9.74-9.741,9.74  c-5.371,0-9.74-4.369-9.74-9.74C39.12,36.422,43.489,32.052,48.861,32.052z M85.216,49.651c-1.813-2.094-4.393-3.156-7.668-3.156  c-0.013,0-0.023,0.01-0.036,0.01c-0.128,0.005-0.25,0.044-0.366,0.105c-0.037,0.02-0.068,0.041-0.102,0.066  c-0.033,0.024-0.071,0.036-0.101,0.065c-0.015,0.014-1.595,1.508-4.177,1.508c-2.58,0-4.16-1.494-4.172-1.506  c-0.031-0.031-0.071-0.044-0.105-0.068c-0.033-0.024-0.062-0.044-0.098-0.063c-0.125-0.067-0.257-0.112-0.395-0.114  c-0.004,0-0.006-0.003-0.01-0.003c-0.002,0-0.003,0-0.004,0c-0.004,0-0.007,0-0.01,0.001c-4.949,0.005-8.332,2.468-9.782,7.124  c-0.142,0.456,0.113,0.941,0.569,1.083c0.454,0.141,0.94-0.112,1.083-0.569c1.167-3.749,3.725-5.731,7.606-5.897l4.538,9.402  c0.144,0.299,0.447,0.489,0.779,0.489c0.332,0,0.635-0.19,0.779-0.489l4.539-9.402c2.491,0.106,4.446,0.961,5.818,2.542  c2.638,3.042,2.558,8.015,2.421,9.886H71.076c-0.478,0-0.865,0.387-0.865,0.865c0,0.478,0.387,0.865,0.865,0.865h16.033  c0.43,0,0.795-0.316,0.856-0.742C88.009,61.345,89.015,54.038,85.216,49.651z M72.767,55.272l-2.793-5.787  c0.781,0.28,1.708,0.494,2.793,0.494c1.086,0,2.013-0.214,2.794-0.494L72.767,55.272z M72.767,44.941  c4.606,0,8.353-3.747,8.353-8.353c0-4.606-3.747-8.353-8.353-8.353c-4.606,0-8.353,3.747-8.353,8.353  C64.414,41.194,68.162,44.941,72.767,44.941z M72.767,29.965c3.652,0,6.623,2.971,6.623,6.623c0,3.652-2.971,6.623-6.623,6.623  c-3.652,0-6.623-2.971-6.623-6.623C66.145,32.936,69.116,29.965,72.767,29.965z M26.646,60.665h-15.25  c-0.139-1.867-0.223-6.831,2.417-9.881c1.373-1.585,3.33-2.441,5.823-2.548l4.539,9.402c0.289,0.598,1.269,0.598,1.558,0  l4.538-9.402c3.881,0.166,6.439,2.148,7.606,5.897c0.143,0.456,0.625,0.712,1.083,0.569c0.456-0.142,0.711-0.627,0.569-1.083  c-1.452-4.661-4.839-7.125-9.796-7.125c-0.013,0-0.023,0.01-0.035,0.01c-0.128,0.005-0.25,0.044-0.366,0.105  c-0.037,0.02-0.068,0.04-0.102,0.066c-0.033,0.024-0.071,0.036-0.101,0.065c-0.015,0.014-1.595,1.508-4.176,1.508  c-2.578,0-4.157-1.49-4.177-1.508c-0.03-0.029-0.069-0.042-0.102-0.066c-0.033-0.024-0.063-0.044-0.099-0.064  c-0.124-0.067-0.254-0.11-0.391-0.113c-0.005,0-0.008-0.004-0.013-0.004c-0.002,0-0.004,0-0.006,0c-0.003,0-0.006,0-0.009,0  c-3.268,0.003-5.843,1.065-7.653,3.155c-3.798,4.387-2.792,11.694-2.748,12.003c0.061,0.425,0.426,0.741,0.856,0.741h16.033  c0.478,0,0.865-0.387,0.865-0.865C27.512,61.051,27.125,60.665,26.646,60.665z M24.954,49.979c1.086,0,2.013-0.214,2.793-0.494  l-2.793,5.787l-2.794-5.787C22.941,49.765,23.868,49.979,24.954,49.979z M24.954,44.941c4.606,0,8.353-3.747,8.353-8.353  c0-4.606-3.747-8.353-8.353-8.353c-4.606,0-8.353,3.747-8.353,8.353C16.601,41.194,20.348,44.941,24.954,44.941z M24.954,29.965  c3.652,0,6.623,2.971,6.623,6.623c0,3.652-2.971,6.623-6.623,6.623c-3.652,0-6.623-2.971-6.623-6.623  C18.331,32.936,21.302,29.965,24.954,29.965z"/></svg>