<?xml version="1.0" encoding="utf-8"?>
<!-- Generator: Adobe Illustrator 22.1.0, SVG Export Plug-In . SVG Version: 6.00 Build 0)  -->
<svg version="1.1" id="Capa_1" xmlns="http://www.w3.org/2000/svg" xmlns:xlink="http://www.w3.org/1999/xlink" x="0px" y="0px"
	 viewBox="0 0 480 480" style="enable-background:new 0 0 480 480;" xml:space="preserve">
<style type="text/css">
	.st0{fill:none;stroke:#000000;stroke-width:7;stroke-miterlimit:10;}
</style>
<path class="st0" d="M240,152h-48c-4.4,0-8,3.6-8,8c0,1.2,0.3,2.5,0.8,3.6l15.2,30.3V224c0,22.1,17.9,40,40,40s40-17.9,40-40v-32
	C280,169.9,262.1,152,240,152z M268,224c0,15.5-12.5,28-28,28s-28-12.5-28-28v-28h56V224z M100.6,223c0,15.5-12.5,28-28,28
	s-28-12.5-28-28v-28h56V223z M436,224c0,15.5-12.5,28-28,28s-28-12.5-28-28v-28h56V224z"/>
<path class="st0" d="M272,264h-64c-22.1,0-40,17.9-40,40v56c0,4.4,3.6,8,8,8h128c4.4,0,8-3.6,8-8v-56C312,281.9,294.1,264,272,264z
	 M296,352h-16v-24c0-4.4-3.6-8-8-8s-8,3.6-8,8v24h-48v-24c0-4.4-3.6-8-8-8s-8,3.6-8,8v24h-16v-48c0-13.3,10.7-24,24-24h64
	c13.3,0,24,10.7,24,24V352z"/>
<path class="st0" d="M88,152H56c-13.3,0-24,10.7-24,24v48c0,22.1,17.9,40,40,40s40-17.9,40-40v-48C112,162.7,101.3,152,88,152z"/>
<path class="st0" d="M104,264H40c-22.1,0-40,17.9-40,40v56c0,4.4,3.6,8,8,8h128c4.4,0,8-3.6,8-8v-56C144,281.9,126.1,264,104,264z
	 M128,352h-16v-24c0-4.4-3.6-8-8-8s-8,3.6-8,8v24H48v-24c0-4.4-3.6-8-8-8s-8,3.6-8,8v24H16v-48c0-13.3,10.7-24,24-24h64
	c13.3,0,24,10.7,24,24V352z"/>
<path class="st0" d="M479.2,204.5C479.2,204.5,479.2,204.5,479.2,204.5l-17.7-35.4c-14.8-29.5-50.7-41.5-80.2-26.7
	c-11.6,5.8-21,15.2-26.7,26.7l-17.7,35.4c-2,4-0.4,8.8,3.6,10.7c0,0,0,0,0,0l28.1,14c2.7,21.8,22.6,37.2,44.4,34.5
	c18-2.3,32.2-16.5,34.5-34.5v0l28.1-14C479.5,213.2,481.1,208.4,479.2,204.5z"/>
<path class="st0" d="M440,263.7h-64c-22.1,0-40,18-40,40.1V360c0,4.4,3.6,8,8,8h128c4.4,0,8-3.6,8-8v-56.1
	C480,281.7,462.1,263.8,440,263.7z M464,352h-16v-24.1c0-4.4-3.6-8-8-8s-8,3.6-8,8V352h-48v-24.1c0-4.4-3.6-8-8-8s-8,3.6-8,8V352
	h-16v-48.1c0-13.3,10.7-24.1,24-24.1h64c13.3,0,24,10.8,24,24.1V352z"/>
</svg>
