<svg xmlns="http://www.w3.org/2000/svg" xmlns:xlink="http://www.w3.org/1999/xlink" version="1.1" x="0px" y="0px" viewBox="0 0 100 125" style="enable-background:new 0 0 100 100;" xml:space="preserve"><path d="M31.9,46.3h-0.5l0.3-0.4c0,0,0.6-0.2,0.6-0.3v-0.4h0.5v0.3l0.6,0.1l0.2,0.6l-0.2,0.2l-0.4,0.2  c0,0-0.2,0.2-0.4,0.1c-0.2-0.1-0.8,0-0.8,0V46.3z M46.8,59.2c-0.4,0-0.9-1.4-0.9-1.4l-2.1-0.3l-0.8-1c0,0-1.4,0-1.7,0.6  c-0.2,0.6-0.6-0.3-0.6-0.3l0.2-2.3l-1.2-1.1l-1.8-0.6l-0.8-0.3l-0.3-1.2l-1.4-1h-2.6l-1-1h-1.2l-1.4,0.6L29,50.4l-1.2,0.4h-1.4  c0,0-0.4,0.6,0.4,0.7c0.8,0.1,0.9,0.9,0.9,1.4c0,0.4-0.1,1.6-0.1,1.6V56l-1.3,0.6v1l0.4,0.1l-0.4,0.7v1.4c0,0,0.5,0.2,0.7,0.2  c0.2,0,0.5,1.4,0.5,1.4l1.3,2.9c0,0,0.9,0.7,1.4,2.5c0.5,1.8,0.2,6.8,0.2,6.8s-0.9,3.4-1.7,4.1c-0.3,0.5,0.2,3.4,0.2,3.4l0.3,0.1V82  v0.6l-0.5,0.3l0.1,0.6l-0.1,1.2l-0.4,0.6c0,0,0.1,0.5,0.3,0.5c0.2,0,0.4,1.3,0.4,1.3l0.4,0.9c0,0,0.2,1,0.7,1c0.5,0,1-3.1,2-3.2  c1-0.1,0.6-3,0.6-3l0.6-0.9h0.3v-0.6L33,80.5l0.4-0.5l1-0.3l0.9-0.8l1.3-0.5v-1.7l1.5-0.6l1.1-1.2l0.9-0.8l0.6-3.2l2.1-1.8l1.7-0.3  v-1.2l0.7-1v-1l1.2-0.4v-2.1l1.5-1.9c0,0,0.6-0.2,0.4-1.5C48.3,58.6,47.3,59.2,46.8,59.2z M63,14.7c0,0,0.8,0,0.9,0  c0.1,0,0.8,0.2,0.9,0.2s0-0.3,0-0.3V14l0.7-0.4c0,0-0.1-0.2-0.3-0.2c-0.2,0-0.1-0.2-0.2-0.2c-0.1,0-0.4-0.2-0.5-0.1  c-0.1,0.1-1,0-1,0h-1.2c0,0-0.1,0.4-0.2,0.4h-0.7c-0.1,0-0.1-0.4-0.1-0.4s-0.2,0-0.3,0c-0.2,0-0.3,0.4-0.4,0.5  c-0.1,0.1,0.1,0.5,0.2,0.6c0.1,0.1,0.5,0.4,0.5,0.4c0.1,0.1,0.4,0.6,0.4,0.6l0.6-0.1L63,15c0,0,0.1-0.1,0-0.2  C62.9,14.6,63,14.7,63,14.7z M32.6,89.4l0-0.4l-0.4-0.1v-0.4h-0.8h-0.7c0,0-0.1,1-0.1,1c0,0,0.4,0.3,0.4,0.3c0.1,0,0.1,0.3,0.1,0.3  l0-0.1l1.5,0.1l0-0.4l0.4-0.1L33,89.4H32.6z M29.3,44.8c0,0,0.5,0.4,0.5,0.4h0.1h0.7c0,0,0.1-0.3,0-0.5c-0.1-0.2-0.4-0.3-0.4-0.3  h-0.4c0,0-0.2-0.3-0.3-0.4c-0.1-0.1-0.5-0.4-0.5-0.5c0-0.1,0.2-0.2,0-0.3c-0.2-0.1-0.6-0.2-0.6-0.2S28,42.7,28,43v0.6  c0,0.1,1.1,0.4,1.1,0.4S29.3,44.8,29.3,44.8z M67.7,24.2c0,0,0.1-0.2,0.2-0.2c0.1-0.1,0.3-0.7,0.3-0.8v-0.7V22h0.8V23l-0.4,0.7  c0,0-0.4,0.5-0.5,0.6c0,0.1,0.6,0.6,0.6,0.6h1c0.1,0,1.3-0.2,1.3-0.2h0.5v-0.8l-0.3-1.3h-0.5c0,0-0.8-1.2-0.9-1.5  c-0.1-0.3-0.3-0.5-0.4-0.5c-0.2-0.1-0.3-1.1-0.3-1.2c0-0.1-0.3-0.1-0.4-0.1c-0.2,0,0,0.8,0,0.8l-0.1,1.3c0,0-0.4,0.1-0.4,0  c0-0.2-0.4-0.3-0.4-0.3l-0.1,0.5l-0.4,0.8l-0.7,0.5v0.9l0.2,0.2L67.7,24.2z M97.5,50c0,26.2-21.3,47.5-47.5,47.5  C23.8,97.5,2.5,76.2,2.5,50C2.5,23.8,23.8,2.5,50,2.5C76.2,2.5,97.5,23.8,97.5,50z M92.1,48.9L92,49.4l0.4,0.3l0.5-0.2l1.4-0.5  l0.1,0c0-0.3,0-0.7,0-1c-0.2,0-0.3,0-0.3,0l-0.3,0.3l-0.5,0.3l-0.4-0.3c0,0-0.5-0.2-0.6-0.2c-0.1-0.1-0.8,0-0.8,0l-0.3-0.5v-1.5  c0,0-0.2-0.5-0.2-0.7c-0.1-0.1-0.5-0.5-0.7-0.5c-0.1,0-0.3-1.1-0.3-1.2c0-0.1-0.7-0.9-0.7-0.9l-0.7-1.6L87.8,40h-0.4l-0.3-1.3  L87,38.5l0.4,2.2l0.4,0.4l0.2,0.9l0.1,1.8l0.7,1.2l0.5,1.1l0.5,1.2l0.7,0.9h0.9L92.1,48.9z M86.3,37.4h1.1l0.3-0.4l-0.2-1l-0.4-1.5  h-0.7l-1.7,0c0,0-0.5,0.1-0.7,0c-0.2-0.1,0-0.4,0-0.4v-0.5v-0.7c0,0,0-0.9-0.2-0.9c-0.2,0-0.5-0.2-0.5-0.2c0,0,0-0.3,0-0.2  c0,0-0.4,0-0.4,0l-0.4,0.2h-0.7c0,0-0.1,0.7-0.1,0.9c0,0.2,0,0.2,0,0.2l0.5,0.3L82,33.5l-0.3,0.4c0,0-0.2,0.3-0.4,0.3  c-0.1,0,0-0.3,0-0.6c-0.3-0.1-0.4-0.1-0.5-0.1c-0.1,0-0.4-0.5-0.6-0.6C80,32.8,80.1,32,80.1,32s-0.2-1-0.2-1.1  c0-0.1-0.5-0.6-0.7-0.7c-0.2,0-0.6-0.7-0.9-1.3c-0.3-0.6-1.1,0-1.1,0l-0.1,0.6c0,0,0.2,0.6,0.4,0.8c0.2,0.2,1,0.9,1,0.9l0.2,0.7  l-0.2,0.2c0,0-0.9-0.7-1.2-0.9c-0.2-0.1-0.3-0.7-0.6-0.8c-0.2-0.1-0.8-0.5-0.8-0.5s-0.1-0.4-0.9-0.4c-0.8,0-0.4,0-0.4,0h-0.8  l-1.2,0.6v0.6l-0.6,0.8c0,0-1.1,0-1.3,0c-0.2,0,0,0.4,0,0.4l-0.1,1.4c0,0-0.2,0.4-0.4,0.4c-0.2,0-0.7,0.3-0.7,0.3l-0.6,0.3v0.4v0.4  l0.9-0.4l1.2-0.4l1-0.9h3.2l0.9,0.4v0.2v0.4v0.4v0.7V36v0.6h1.2l0.9,0.4v0.4l1.6,0.3v0.5l0.4-0.3l-0.4-1.2l1,0.3h0.9l-0.2,0.6h1.4  h1.8l0.6,0.4h0.5h0.7L86.3,37.4z M26.3,12.4c-0.1,0-0.1,0.1-0.2,0.1C26.2,12.6,26.3,12.6,26.3,12.4C26.3,12.5,26.3,12.5,26.3,12.4z   M93.6,58.4h-0.2l-0.2-0.5l0.2-0.5h0.2v0.5v0.3v0.1c0.4-2.2,0.7-4.5,0.7-6.8l-2.5,4.5h-0.7l-1.8,3.5l-0.1,1.4l0.7,0.4v4l-2.8,2v2.2  l-1,0.9l-0.4,1.5l-2.8,3.8h-2.8h-0.4l-0.2,0.3L79,75.6l-0.7-1.2L78,71.7l-0.4-3.3L77,66.7l-0.4-2.9l1-0.7v-1.3l0.1-1.2l-0.4-0.8  l-0.3-1.5l-1.2-1.7L75.6,53L73.3,52l-2,0.2l-1,0.7l-3.4-0.2l-0.1-0.7l-1-0.7l-0.1-0.9l-1.5-1.5l-1-1.1v-0.7v-0.9v-4.9l3.3-2.2v-1  v-0.7v-0.8l1.2-0.8l0.4-0.9v-0.5h0.7l-0.2-0.4l-0.1-0.4h-0.4l-1.1,0l-0.3-0.9l0.1-3l1-0.1h1.5L70,29h0.7l-0.1-1.1l-1.3-1.5l1.9-0.4  c0,0,2.1-2.4,2.1-2.7c0-0.3,0.7,0,0.7,0l1.2-0.2l0.1-1v-1.5l0.6-0.2l0.4,0.9l0.1,0.8h2.1l1.4,0.4L81,22l-0.3-0.9  c0,0,0.4-1.5,0.6-1.9c0.1-0.4,0,0.8,0,0.8l1.2,0.4V20c0,0,0-0.1,0-0.2c-1-1.1-2-2.1-3.1-3l-0.3,0.4L80,18l0.1,1.2h-0.9l-1.1,1.4  l-0.6,0.9l0.2-0.9L77,20.1v-1.2l-1.1,0.3l-1.4-0.4l0.1-0.9L73.9,17l0.1-0.7l2.7-1.2l0.1-0.6c-4.6-3.5-9.9-6.1-15.6-7.6l-0.3,0.7  L62,7.9v0.7c0,0-0.7,0.7-1.2,0.7c-0.5,0-1.2,0.1-1.2,0.1s-0.7,0.5-1.1,0.5c-0.4,0-0.9,0.4-0.9,0.4s-0.4,0.7-0.8,0.7  c-0.4,0-2.2,0.4-2.2,0.4l-0.3,1l-0.5,1l-0.6,0.5l-0.7,1.4l-0.2,0.3h-0.9v-0.4l-1-0.3L49.7,14v-1.7h-0.6L48.9,12l0.2-0.9l-0.2-0.7  h-0.6l0.1-0.6L49.1,9V8.6h-0.6l-0.4-0.9h0.4V6.6l-0.8-0.9c-5.8,0.3-11.3,1.7-16.2,4c0.1,0.1,0.1,0.1,0.1,0.1l2,0.2l0.6,0.7l0.2,1.5  l-0.6,0.4l0,0.4l1.5,0.3h0.4c0,0,0.1,0.5,0.3,0.5H37v0.8c0,0-0.5,0.2-0.6,0.3c-0.1,0-0.7,0.9-0.7,0.9s0,0.3-0.3,0.1  c-0.3-0.2-0.9-0.9-0.9-0.9l-0.2-0.2l-0.2,0.4c0,0-0.1,0.2,0.1,0.3c0.2,0.1,0.9,0.9,0.9,0.9l0.4,0.4l-0.6,0.5h-1.1l-0.2,0.9L33.1,18  l-0.2-0.5l-1.3-0.8l-0.1-0.6l-0.5-0.4l-1.3-0.1l0-0.2l0.2-0.4h0.2l0,0.2h0.7l0.3-0.8l0.1-0.8c0,0,0.2-0.5,0.2-0.6  c0-0.1,0.2-0.5,0.2-0.5l-0.2-0.4l-0.9-0.5l-0.9-0.4l-0.7-0.3c-0.5,0.3-1,0.6-1.5,0.9c0.1,0.1,0.1,0.2,0.2,0.2h0.9l0.2,0.3l-0.2,0.2  l-0.2,0.2h-0.5l-0.4,1l-0.2,0.6l-0.9,0.4l-0.3,0.5c0,0,0.4,0.2,0.5,0.2c0.1,0,0.9,0.9,0.9,0.9l0.7,0l-0.4,0.5h-0.5l-1.5,0.1L25,16.5  l0-0.3c0,0,0-0.4,0-0.6c0-0.2,0-0.4,0-0.4s0-0.4-0.3-0.2c-0.3,0.2-0.6,0.2-0.6,0.2l0.2,0.6L23.8,16h-0.5L23,16.8l-1.2,0.5L21.6,18  l-0.2,0.4l-0.5,1.1l-0.3-0.1l0.1,0.5c0,0,0.5,0.1,0.6,0.1c0.1,0,0.5,0.5,0.5,0.5l0.3,0.8h0.5h1.2l0.7,0.8l0.5,1c0,0,0.9-0.2,1-0.2  c0.1,0,0.8,0.5,0.8,0.5l0.2,1.6l0.6,0.3l0.5,0.1l0.1-1.8l0.8-0.7l0.4-1l-0.2-1.2l-0.7-0.2l-0.2-1.2l0.5,0.1l0.1-1.7l0.5-0.3l0.6,0  v0.6h1c0.1,0,0.7-0.1,0.7-0.1s0.1,0.7,0.2,0.7c0.1,0,0.8-0.1,0.8-0.1l0.3,1v0.8l0.5,0.2l0.6-0.2l0.1-0.3c0,0,0.2-0.6,0.3-0.6  c0.1,0,0.7-0.1,0.7-0.1l0.5,0.2l0.6,1.8l0.9,1.3c0,0,0.7,1.1,1.2,1.1c0.5,0,1,0.7,1,0.7l-0.5,1L38,26.3l-1.2,0.1l-1.7,0.3l-0.5,0.3  L34,27l0,0.9l1-0.3c0,0-0.1-0.2,0.1-0.2c0.2,0,0.8-0.1,0.8-0.1s-0.1,0.5-0.1,0.6c0,0.1,0.2,0.6,0.2,0.6l1,0l-0.3,0.6h1.2L37.1,30  l-0.5,0.5H36l-0.9,0L34.9,30l-0.4-0.7c0,0-0.3,0.2-0.2,0.3c0.1,0.1,0.1,1,0.1,1s-0.1,0.2,0.1,0.3c0.2,0.1,0.5,0.6,0.5,0.6l-0.2,0.2  c0,0-0.1,0.1-0.2,0.1h-0.2l-0.4-0.1l-0.2-0.5L33.1,31c0,0-0.4,0.3-0.4,0.4c0,0.1-0.2,0.7-0.2,0.7l-0.7,0.1l-0.5,0.3l-0.1,1.4l-1,0.8  l0.2,1.6l-1.1,0.4L29,37.9l-0.4,0.9v1.6l0.3,0.4L28.8,42l-0.6,0c0,0-1.1-0.9-1.1-1.1c0-0.3-0.1-1-0.1-1l-0.3-0.3l-0.5,0L24.7,39v0.7  l-0.8,0.1l-2-0.4l-0.2-0.1L21.4,40L20.7,40l-0.5,1.6v0.8c0,0.4-0.1,1.6-0.1,1.6l0.1,0.6h0.3l0.2,0.7l0.4,0.5h0.5l0.2,0.4h0.5  c0,0,0.3,0,0.4,0c0.1,0,0.7-0.2,0.7-0.3c0-0.1,0-0.6,0.1-0.7c0.1-0.1,0.3-0.2,0.4-0.3c0.1-0.2,0.8-0.5,0.9-0.5  c0.1-0.1,0.6-0.5,0.6-0.5s0,0.5,0.1,0.7c0.1,0.2,0,2.4,0,2.4l0.2,0.2c0,0,0.3,0,0.3,0.4c0,0.3-0.3,2.9-0.3,2.9l0.5,0.7l-0.2,0.1  h-0.7c0,0-0.5-0.3-0.6-0.4c-0.1,0-0.8-0.5-0.8-0.8v-0.9c0-0.1-0.2-0.6-0.2-0.6l-1.2-0.1c0,0-0.7-0.3-0.7-0.4c0-0.1-0.4-0.5-0.4-0.5  l-0.8-0.5h-1.6h-1l-0.2-0.2c0,0,0.2-0.4,0.2-0.6c0-0.2-0.3-0.5-0.3-0.5L16.9,45l0-0.5l0.3-0.2c0,0,0-0.3-0.1-0.5  c-0.1-0.1-1-2.1-1-2.1l-0.2-0.2L15,40.6l-0.4-0.3c0,0-0.3-0.6-0.3-0.5V41c0,0,0.1,0.5,0.2,0.6c0.1,0.1,0.1,0.7,0.1,0.7v0.3v0.2  l-0.1,0.3h-0.3L14,42.7l-1.7-3.5c0,0-2.5-3.8-3-4.2c-0.2-0.1-0.4-0.7-0.5-1.5c-2,5.1-3.2,10.7-3.2,16.5c0,24.5,19.9,44.4,44.4,44.4  C71.6,94.4,89.7,78.9,93.6,58.4z"/></svg>