<svg xmlns:dc="http://purl.org/dc/elements/1.1/" xmlns:cc="http://creativecommons.org/ns#" xmlns:rdf="http://www.w3.org/1999/02/22-rdf-syntax-ns#" xmlns:svg="http://www.w3.org/2000/svg" xmlns="http://www.w3.org/2000/svg" xmlns:sodipodi="http://sodipodi.sourceforge.net/DTD/sodipodi-0.dtd" xmlns:inkscape="http://www.inkscape.org/namespaces/inkscape" version="1.1" x="0px" y="0px" viewBox="0 0 100 125"><g transform="translate(0,-952.36218)"><path d="m 31.755979,968.395 c -5.0746,0 -10.122,2.0055 -13.9687,6.03125 -7.6936,8.05134 -7.7157,20.97382 -0.031,29.03125 l 30.7812,32.2812 c 0.7452,0.7878 2.1611,0.7878 2.9063,0 10.2681,-10.7459 20.512996,-21.5039 30.781196,-32.25 7.6935,-8.05143 7.6935,-20.97972 0,-29.0312 -7.6935,-8.05145 -20.275196,-8.05163 -27.968696,0 l -4.25,4.40625 -4.25,-4.4375 c -4.1477,-4.35729 -9.2866,-6.05235 -14.0001,-6.03125 z m 0,3.9375 c 3.999,0 8.019,1.62452 11.125,4.875 l 5.6875,5.96875 c 0.7452,0.78779 2.1611,0.78779 2.9063,0 l 5.6562,-5.9375 c 6.212,-6.50109 16.006796,-6.50095 22.218796,0 6.2118,6.50096 6.2118,16.99904 0,23.49995 -9.779796,10.2349 -19.564096,20.4841 -29.343796,30.7188 l -29.3437,-30.75 c -6.2077,-6.50897 -6.2119,-16.9992 0,-23.5 3.1059,-3.25047 7.0947,-4.875 11.0937,-4.875 z" style="text-indent:0;text-transform:none;direction:ltr;block-progression:tb;baseline-shift:baseline;color:#000000;enable-background:accumulate;" fill="#000000" fill-opacity="1" stroke="none" marker="none" visibility="visible" display="inline" overflow="visible"/></g></svg>