<svg xmlns="http://www.w3.org/2000/svg" xmlns:xlink="http://www.w3.org/1999/xlink" version="1.1" x="0px" y="0px" viewBox="0 0 100 114.625" enable-background="new 0 0 100 91.7" xml:space="preserve"><g><defs><rect id="b" x="0" y="0" width="100" height="91.7"/></defs><clipPath id="a"><use xlink:href="#b" overflow="visible"/></clipPath><g clip-path="url(#a)"><circle cx="50.9" cy="34.9" r="2.1" fill="white"/></g><g clip-path="url(#a)"><circle cx="59.3" cy="34.9" r="2.1" fill="white"/></g><g clip-path="url(#a)"><circle cx="67.6" cy="34.9" r="2.1" fill="white"/></g><g clip-path="url(#a)"><path fill="" d="M24.6,49.6c-3.2-4.9-4.9-10.4-4.9-16c0-0.2,0-0.5,0-0.7c-1.6,0.8-3.1,1.8-4.5,2.9c-5.8,4.5-9,10.5-9,17    c0,8.1,5.1,15.5,13.6,19.9c1.1,0.6,1.7,1.7,1.7,2.9c0,0,0,0.1,0,0.1c0,3.8-1,7.1-2.7,9.7c3-0.4,4.8-2.3,6.8-4.4    c2.1-2.1,4.4-4.6,8-4.6c0.3,0,1.6,0,1.9,0c4.3,0,8.4-0.7,12.3-2.2c2-0.7,3.8-1.6,5.5-2.7c2-1.2,3.8-2.7,5.3-4.3    c-5.3-0.1-10.4-1.1-15.3-2.9C35.5,61.3,28.8,56.1,24.6,49.6z" /><path fill="none" d="M78,56.6c9.8-5.1,15.7-13.7,15.7-23.1c0-15.1-15.2-27.3-33.9-27.3S26,18.5,26,33.6c0,4.5,1.3,8.7,3.8,12.6    c3.5,5.3,9.1,9.7,15.9,12.2c4.5,1.7,9.2,2.5,14.2,2.5c0.4,0,1.8,0,2.2,0c3.9,0,6.5,2.7,8.8,5.1c2.4,2.5,4.8,4.9,8.9,5.2    c-2.1-2.9-3.4-6.9-3.4-11.5c0,0,0,0,0-0.1C76.3,58.4,76.9,57.2,78,56.6z" /><path fill="white" d="M88.2,69.6c-2.3,0-4.8-3-5.4-7.6c-0.1-1,0.1-0.9,1.8-2.1C94.2,53.5,100,44,100,33.6C100,15,82,0,59.9,0    c-18.8,0-34.6,10.9-39,25.5c-3.5,1.3-6.7,3.1-9.5,5.3C4.2,36.4,0,44.4,0,52.7c0,9.9,5.6,18.9,15.2,24.5c-0.7,7.1-5.9,6.5-5.9,10.4    c0,2.2,1.8,4,4,4c10.6,0,14.4-3.7,16.9-6.4c1.4-1.4,2.5-2.6,3.4-2.6c0.3,0,1.6,0,1.9,0c5,0,9.9-0.9,14.5-2.6    c2.3-0.9,4.6-2,6.7-3.3c3.3-2.1,6.2-4.6,8.5-7.5c0.3,0.3,0.7,0.7,1,1.1c2.9,3,6.9,6.5,14,7.2c9.7,1,11.7-3.3,10.8-5.9    C90.7,70.5,89.4,69.6,88.2,69.6z M53.5,71.4c-1.7,1.1-3.6,2-5.5,2.7c-3.9,1.4-8,2.2-12.3,2.2c-0.3,0-1.6,0-1.9,0    c-3.6,0-5.9,2.4-8,4.6c-2,2.1-3.8,4-6.8,4.4c1.7-2.6,2.7-5.9,2.7-9.7c0,0,0-0.1,0-0.1c0-1.2-0.6-2.3-1.7-2.9    C11.3,68.2,6.3,60.8,6.3,52.7c0-6.4,3.2-12.5,9-17c1.4-1.1,2.9-2,4.5-2.9c0,0.2,0,0.5,0,0.7c0,5.6,1.7,11.2,4.9,16    c4.2,6.5,10.9,11.7,18.9,14.7c4.8,1.8,10,2.8,15.3,2.9C57.3,68.8,55.5,70.2,53.5,71.4z M79.7,71.2c-4.1-0.2-6.5-2.6-8.9-5.2    c-2.3-2.4-4.9-5.1-8.8-5.1c-0.4,0-1.8,0-2.2,0c-4.9,0-9.7-0.8-14.2-2.5c-6.8-2.5-12.4-6.9-15.9-12.2C27.3,42.3,26,38,26,33.6    C26,18.5,41.2,6.2,59.9,6.2s33.9,12.3,33.9,27.3c0,9.4-5.9,18-15.7,23.1c-1.1,0.6-1.8,1.8-1.7,3c0,0,0,0,0,0.1    C76.3,64.2,77.6,68.2,79.7,71.2z"/></g></g></svg>