<svg xmlns="http://www.w3.org/2000/svg" xmlns:xlink="http://www.w3.org/1999/xlink" version="1.1" x="0px" y="0px" viewBox="0 0 52 65" enable-background="new 0 0 52 52" xml:space="preserve"><g><path d="M44,2H8C4.7000122,2,2,4.6900024,2,8v36c0,3.3099976,2.7000122,6,6,6h36c3.3099976,0,6-2.6900024,6-6V8   C50,4.6900024,47.3099976,2,44,2z M13.0040283,44.0011597c-2.7614746,0-5-2.2385864-5-5c0-2.7614746,2.2385254-5,5-5   c2.7614136,0,5,2.2385254,5,5C18.0040283,41.7625732,15.7654419,44.0011597,13.0040283,44.0011597z M13.0040283,18.0011597   c-2.7614746,0-5-2.2385864-5-5c0-2.7614746,2.2385254-5,5-5c2.7614136,0,5,2.2385254,5,5   C18.0040283,15.7625732,15.7654419,18.0011597,13.0040283,18.0011597z M39.0040283,44.0011597c-2.7614746,0-5-2.2385864-5-5   c0-2.7614746,2.2385254-5,5-5c2.7614136,0,5,2.2385254,5,5C44.0040283,41.7625732,41.7654419,44.0011597,39.0040283,44.0011597z    M39.0040283,18.0011597c-2.7614746,0-5-2.2385864-5-5c0-2.7614746,2.2385254-5,5-5c2.7614136,0,5,2.2385254,5,5   C44.0040283,15.7625732,41.7654419,18.0011597,39.0040283,18.0011597z"/></g></svg>