<svg xmlns="http://www.w3.org/2000/svg" xmlns:xlink="http://www.w3.org/1999/xlink" version="1.1" x="0px" y="0px" viewBox="0 0 100 125" enable-background="new 0 0 100 100" xml:space="preserve"><g><path d="M85.361,44.263h-5.758V30.352c0-5.497-4.457-9.954-9.954-9.954H52.223v-5.76c0-6.728-5.453-12.181-12.181-12.181h-0.508   c-6.728,0-12.181,5.453-12.181,12.181v5.76H12.412c-5.497,0-9.954,4.457-9.954,9.954v13.911h5.758   c6.727,0,12.181,5.453,12.181,12.18v0.508c0,6.728-5.454,12.181-12.181,12.181H2.458v18.458c0,5.497,4.457,9.954,9.954,9.954   h14.941V92.51c0-6.727,5.453-12.18,12.181-12.18h0.508c6.728,0,12.181,5.453,12.181,12.18v5.033h17.427   c5.497,0,9.954-4.457,9.954-9.954V69.131h5.758c6.727,0,12.181-5.453,12.181-12.181v-0.508   C97.542,49.716,92.088,44.263,85.361,44.263z"/></g></svg>