<svg xmlns="http://www.w3.org/2000/svg" xmlns:xlink="http://www.w3.org/1999/xlink" version="1.1" x="0px" y="0px" viewBox="0 0 95 118.75" enable-background="new 0 0 95 95" xml:space="preserve"><g><defs><rect id="a" x="-151.886" y="-351.367" width="110.994" height="91.496"/></defs><clipPath><use xlink:href="#a" overflow="visible"/></clipPath></g><path d="M87.885,33.545c-0.245-1.381-0.637-2.755-1.188-4.108c-4.239-10.408-16.113-15.405-26.522-11.168  c-2.977,1.214-5.509,3.055-7.511,5.305H42.336c-2.002-2.25-4.534-4.09-7.511-5.305c-10.409-4.236-22.283,0.761-26.522,11.168  c-0.551,1.354-0.942,2.728-1.19,4.108L4.177,64.751c0.017,5.695,1.379,10.578,6.269,12.572c0.094,0.038,0.188,0.065,0.28,0.101  c0.091,0.041,0.18,0.085,0.273,0.124c4.89,1.991,9.279-0.55,13.269-4.611l17.33-21.439H53.4l17.333,21.439  c3.988,4.061,8.378,6.603,13.268,4.611c0.094-0.039,0.18-0.083,0.272-0.124c0.093-0.036,0.188-0.063,0.281-0.101  c4.89-1.994,6.253-6.876,6.269-12.572L87.885,33.545z M36.738,39.519c0,0.756-0.614,1.372-1.372,1.372h-6.398v6.398  c0,0.761-0.614,1.372-1.372,1.372h-3.085c-0.757,0-1.372-0.61-1.372-1.372V40.89h-6.401c-0.754,0-1.372-0.615-1.372-1.372v-3.084  c0-0.759,0.617-1.37,1.372-1.37h6.401v-6.4c0-0.759,0.614-1.372,1.372-1.372h3.085c0.757,0,1.372,0.613,1.372,1.372v6.4h6.398  c0.758,0,1.372,0.611,1.372,1.37V39.519z M61.608,41.306c-1.842,0-3.335-1.493-3.335-3.332c0-1.843,1.493-3.336,3.335-3.336  c1.841,0,3.333,1.493,3.333,3.336C64.941,39.813,63.449,41.306,61.608,41.306z M68.951,48.651c-1.839,0-3.336-1.495-3.336-3.333  c0-1.841,1.497-3.334,3.336-3.334c1.843,0,3.336,1.493,3.336,3.334C72.287,47.156,70.794,48.651,68.951,48.651z M68.951,33.962  c-1.839,0-3.336-1.493-3.336-3.336c0-1.841,1.497-3.334,3.336-3.334c1.843,0,3.336,1.493,3.336,3.334  C72.287,32.469,70.794,33.962,68.951,33.962z M76.297,41.306c-1.843,0-3.336-1.493-3.336-3.332c0-1.843,1.493-3.336,3.336-3.336  c1.842,0,3.335,1.493,3.335,3.336C79.632,39.813,78.139,41.306,76.297,41.306z" fill="#3a5f7b"/></svg>