<svg xmlns="http://www.w3.org/2000/svg" xmlns:xlink="http://www.w3.org/1999/xlink" version="1.1" x="0px" y="0px" viewBox="0 0 500 625" enable-background="new 0 0 500 500" xml:space="preserve"><path d="M366.8,32.3v31.9h30.6l-56.9,56.9C316.8,98.9,285,85.4,250,85.4c-34.9,0-66.7,13.5-90.4,35.6l-9.1-9.1l22.4-22.4l-22.5-22.5  L128,89.3l-25.2-25.2h30.4V32.3h-85v85h31.9V86.5l25.3,25.3l-22.6,22.6l22.5,22.5l22.6-22.6l11,11c-13.7,20.9-21.7,45.9-21.7,72.7  c0,67.9,51,123.9,116.8,131.8V404h-31.9v31.9h31.9v31.9h31.9v-31.9h31.9V404h-31.9v-54.1c65.8-7.9,116.8-63.8,116.8-131.8  c0-26.8-8-51.8-21.7-72.6l58.8-58.8v30.6h31.9v-85H366.8z M250,319c-55.6,0-100.9-45.3-100.9-100.9c0-55.6,45.3-100.9,100.9-100.9  c55.6,0,100.9,45.3,100.9,100.9C350.9,273.8,305.6,319,250,319z" fill="white"/></svg>