<svg xmlns="http://www.w3.org/2000/svg" xmlns:xlink="http://www.w3.org/1999/xlink" version="1.1" x="0px" y="0px" viewBox="0 0 100 125" style="enable-background:new 0 0 100 100;" xml:space="preserve"><path d="M18.4,59.3c4.7,4.7,9.5,9.5,14.2,14.2c5.3,5.3,10.7,10.7,16,16c0.8,0.8,2.1,0.8,2.9,0c9.3-9.3,18.6-18.6,27.9-27.9  c3.5-3.5,7.3-6.8,10.4-10.5c7.3-8.9,6.9-22-0.8-30.6c-9-10-24.4-9.9-34-0.9c-1.7,1.7-3.3,3.3-5,5c-6.4-6.4-12.8-12.4-22.7-11.8  C14.7,13.4,4.4,24.5,5,37.3C5.5,47,12,52.9,18.4,59.3z M20.7,18.5c6.8-3,15-1.7,20.6,3.2c2.6,2.3,4.9,4.8,7.3,7.3  c0.8,0.8,2.1,0.8,2.9,0c2.2-2.2,4.3-4.3,6.5-6.5c9.1-8.6,24.2-7,30.5,4.1c2.8,5,3.3,11.2,1.2,16.5c-1.5,4-4.4,6.7-7.3,9.6  c-7.6,7.6-15.3,15.3-22.9,22.9c-3.1,3.1-6.3,6.3-9.4,9.4C41.5,76.6,33,68.1,24.4,59.5c-3.1-3.1-6.4-6.2-9.4-9.4  C5.7,40.4,7.9,24.1,20.7,18.5z" fill="rgba(255, 255, 255, 0.24)"/></svg>