<svg xmlns="http://www.w3.org/2000/svg" xmlns:xlink="http://www.w3.org/1999/xlink" version="1.1" x="0px" y="0px" viewBox="0 0 100 125" enable-background="new 0 0 100 100" xml:space="preserve"><path d="M50,13c-20.434,0-37,16.565-37,37s16.566,37,37,37s37-16.565,37-37S70.434,13,50,13z M50,84c-18.748,0-34-15.252-34-34  s15.252-34,34-34s34,15.252,34,34S68.748,84,50,84z"/><path d="M61,40.989c0-6.075-4.926-11-11-11c-6.076,0-11,4.925-11,11c0,4.475,2.676,8.317,6.512,10.036L42,69.989h16l-3.512-18.964  C58.323,49.307,61,45.463,61,40.989z"/></svg>