<svg xmlns="http://www.w3.org/2000/svg" xmlns:xlink="http://www.w3.org/1999/xlink" version="1.0" x="0px" y="0px" viewBox="0 0 100 125" enable-background="new 0 0 100 100" xml:space="preserve"><path d="M63.079,21.741C61.384,21.042,60,18.965,60,17.132V10H40v7.132c0,1.833-1.387,3.91-3.079,4.609L10,32.888v24.326  l2.552-1.059c3.422-1.416,6.403-3.538,8.842-6.182C23.958,55.872,29.824,60,36.667,60v-0.003h5.025  c3.672-0.014,6.641-2.992,6.641-6.664h3.334c0,3.679,2.981,6.664,6.66,6.667h5.006c6.843,0,12.705-4.131,15.273-10.026  c2.438,2.641,5.42,4.766,8.842,6.182L90,57.214V32.888L63.079,21.741z"/><path d="M80,59.724c-4.307,4.361-10.315,6.943-16.667,6.943h-5.006c-3.151-0.004-6.049-1.104-8.33-2.937  c-2.272,1.826-5.153,2.923-8.281,2.933c0,0-5.056,0-5.063,0c-6.348,0-12.35-2.578-16.653-6.939c-0.022,0.016,0,8.206,0,8.206  c0,5.352,1.758,10.43,5,14.577V90h50v-7.493c3.242-4.147,5-9.226,5-14.577C80,67.93,80.022,59.739,80,59.724z" fill="white"/></svg>