<svg xmlns="http://www.w3.org/2000/svg" xmlns:xlink="http://www.w3.org/1999/xlink" version="1.1" x="0px" y="0px" viewBox="0 0 100 125" enable-background="new 0 0 100 100" xml:space="preserve"><g><path d="M974.224,1401.537c1.772,1.895,0.729,6.605,1,10c9.824,0.506,21.774-1.111,29.995,1   c8.33,38.461-14.78,66.709-39.995,81.988c-9.046,5.482-18.373,8.277-27.996,13c-13.478,6.613-22.271,20.434-34.996,24.996   c-6.418,29.748,20.51,26.158,21.998,47.994c7.248,4.75,15.229,8.77,14.998,20.996c-31.658,2.334-67.651,0.334-100.981,1   c-0.593-13.256,7.666-17.664,15.998-21.996c0.272-16.385,13.854-19.473,20.997-28.996c0-6,0-12,0-17.998   c-10.451-9.213-23.836-15.494-32.996-25.996c-20.256-5.404-40.938-15.896-53.992-30.996   c-12.804-14.816-21.072-40.064-15.998-63.992c7.9-2.1,19.494-0.504,28.996-1c2.613-1.387-0.48-8.486,2-10   C860.235,1401.537,917.229,1401.537,974.224,1401.537z M818.242,1479.527c-7.212-15.119-13.44-31.221-14.998-51.992   c-5.666,0-11.332,0-16.998,0C789.192,1452.584,799.974,1469.801,818.242,1479.527z M960.226,1479.527   c17.088-10.574,28.187-27.145,30.995-51.992c-5.666,0-11.332,0-16.998,0C973.353,1447.998,965.017,1466.32,960.226,1479.527z"/><path fill="white" d="M786.246,1427.535c5.666,0,11.332,0,16.998,0c1.558,20.771,7.787,36.873,14.998,51.992   C799.974,1469.801,789.192,1452.584,786.246,1427.535z"/><path fill="white" d="M974.224,1427.535c5.666,0,11.332,0,16.998,0c-2.812,24.848-13.908,41.418-30.996,51.992   C965.017,1466.32,973.353,1447.998,974.224,1427.535z"/></g><circle fill="none" stroke="#000000" stroke-width="4" stroke-linecap="round" stroke-linejoin="round" stroke-miterlimit="10" cx="-425.25" cy="-1228.25" r="98.25"/><path fill="none" stroke="#000000" stroke-width="4" stroke-linecap="round" stroke-linejoin="round" stroke-miterlimit="10" d="  M-449.258-1179.462c38.86-48.719,0.451-49.038,0.451-72.763c0-15.775,9.058-24.25,24.25-24.25"/><path fill="none" stroke="#000000" stroke-width="4" stroke-linecap="round" stroke-linejoin="round" stroke-miterlimit="10" d="  M-424.756-1276.496c13.392,0,24.25,6.111,24.25,24.25"/><path fill="none" stroke="#000000" stroke-width="4" stroke-linecap="round" stroke-linejoin="round" stroke-miterlimit="10" d="  M-448.934-1252.099"/><line fill="none" stroke="#000000" stroke-width="4" stroke-linecap="round" stroke-linejoin="round" stroke-miterlimit="10" x1="-461.5" y1="-1227.998" x2="-410.749" y2="-1227.998"/><line fill="none" stroke="#000000" stroke-width="4" stroke-linecap="round" stroke-linejoin="round" stroke-miterlimit="10" x1="-449" y1="-1179.25" x2="-397.75" y2="-1179.25"/><path d="M83.087,41.054c1.41-3.235,1.998-4.545,1.65-9.394c-0.566-7.881-3.885-14.797-7.973-19.458  C66.444,0.436,38.83,0.684,26.899,11.036c-5.86,5.084-12.031,13.047-12.242,23.172C14.39,47.005,20.113,55.27,25.369,63.285  c1.683,2.564,3.964,5.666,4.372,8.744c0.85,6.426-0.081,11.674-2.775,15.74c-1.888,2.85-3.598,5.33-5.4,7.564h42.707  c-2.105-3.879-2.848-10.273,0.078-10.266c4.332,0.125,7.42,1.17,11.74,0.516c3.262-0.496,5.275-1.393,5.902-4.373  c0.734-3.488-1.201-3.955-0.875-5.684c0.449-2.387,1.918-3.572,2.662-6.34c1.01-3.764-0.848-6.039,0.746-6.809  c2.104-1.32,3.938-1.238,5.773-3.029C93.335,56.504,81.438,45.277,83.087,41.054z M67.138,34.792  c-0.542,3.561-2.201,5.701-4.101,7.761c-4.188,4.36-9.223,7.508-12.427,10.453c-3.231-2.666-4.838-3.511-7.383-5.721  c-2.396-2.084-5.125-4.259-7.002-6.878c-1.818-2.537-3.294-6.996-2.146-11.04c0.941-3.317,3.54-5.968,7.886-6.246  c5.309-0.055,7.354,3.511,8.58,6.18c1.239-2.616,2.918-5.815,8.015-6.18c2.945-0.029,5.024,1.162,6.372,2.523  C67.055,27.788,67.716,31.024,67.138,34.792z" fill="white" /></svg>