<svg xmlns="http://www.w3.org/2000/svg" data-name="Layer 1" viewBox="0 0 100 125" x="0px" y="0px"><title>Artboard 9</title><path d="M90.85,36.41A37.2,37.2,0,0,0,16.53,38.7a14.25,14.25,0,0,1-1.24,5.84L9.55,57.39a5.51,5.51,0,0,0,3.3,7.48l3.67,1.21V77.47a8.75,8.75,0,0,0,8.74,8.74H36.8l2.27,8a6,6,0,0,0,7.37,4.1L82.39,88a6,6,0,0,0,4.1-7.37L81.55,63.36A36.84,36.84,0,0,0,90.85,36.41ZM77,61a2.5,2.5,0,0,0-.6,2.42L81.68,82A1,1,0,0,1,81,83.21L45.07,93.46a1,1,0,0,1-1.19-.66L41.09,83a2.5,2.5,0,0,0-2.4-1.81H25.26a3.74,3.74,0,0,1-3.74-3.74V64.27a2.5,2.5,0,0,0-1.71-2.37l-5.38-1.78a.51.51,0,0,1-.31-.69l5.73-12.85a19.2,19.2,0,0,0,1.68-7.87A32.2,32.2,0,0,1,53.72,6.5h.09A32.19,32.19,0,0,1,77,61ZM36.82,21.66A24,24,0,0,0,32.61,50l-1.76,6.06a4.5,4.5,0,0,0,5.58,5.58l6.06-1.76a24,24,0,1,0-5.67-38.22ZM67.3,52.13A19,19,0,0,1,44.09,55a2.5,2.5,0,0,0-2-.25l-6.2,1.8,1.8-6.2a2.5,2.5,0,0,0-.25-2A19,19,0,1,1,67.3,52.13Zm-11-13.47a2.5,2.5,0,1,1-2.5-2.5A2.5,2.5,0,0,1,56.33,38.66Zm7.94,0a2.5,2.5,0,1,1-2.5-2.5A2.5,2.5,0,0,1,64.27,38.66Zm-15.88,0a2.5,2.5,0,1,1-2.5-2.5A2.5,2.5,0,0,1,48.39,38.66Z"/></svg>