<svg xmlns:dc="http://purl.org/dc/elements/1.1/" xmlns:cc="http://creativecommons.org/ns#" xmlns:rdf="http://www.w3.org/1999/02/22-rdf-syntax-ns#" xmlns:svg="http://www.w3.org/2000/svg" xmlns="http://www.w3.org/2000/svg" xmlns:sodipodi="http://sodipodi.sourceforge.net/DTD/sodipodi-0.dtd" xmlns:inkscape="http://www.inkscape.org/namespaces/inkscape" version="1.1" x="0px" y="0px" viewBox="0 0 100 125"><g transform="translate(0,-952.36218)"><path style="text-indent:0;text-transform:none;direction:ltr;block-progression:tb;baseline-shift:baseline;color:#000000;enable-background:accumulate;" d="m 49.78125,966.36415 a 4.6738692,4.5486552 0 0 0 -3.84375,2.2812 L 8.6249999,1031.5517 a 4.6738692,4.5486552 0 0 0 4.0625001,6.8125 l 74.625,0 a 4.6738692,4.5486552 0 0 0 4.0625,-6.8125 L 54.03125,968.64535 a 4.6738692,4.5486552 0 0 0 -4.25,-2.2812 z m 0.21875,20 c 2.76141,0 5,2.2386 5,5 l -1,18.00005 c 0,2.2091 -1.79088,4 -4,4 -2.20913,0 -4,-1.7909 -4,-4 l -1,-18.00005 c 0,-2.7614 2.23859,-5 5,-5 z m 0,30.00005 c 2.76142,0 5,2.2386 5,5 0,2.7614 -2.23858,5 -5,5 -2.76142,0 -5,-2.2386 -5,-5 0,-2.7614 2.23858,-5 5,-5 z" fill="yellow" stroke="none" marker="none" visibility="visible" display="inline" overflow="visible"/></g></svg>