<?xml version="1.0" encoding="utf-8"?>
<!-- Generator: Adobe Illustrator 22.1.0, SVG Export Plug-In . SVG Version: 6.00 Build 0)  -->
<svg version="1.1" id="Capa_1" xmlns="http://www.w3.org/2000/svg" xmlns:xlink="http://www.w3.org/1999/xlink" x="0px" y="0px"
	 viewBox="0 0 1054.7 383.1" style="enable-background:new 0 0 1054.7 383.1;" xml:space="preserve">
<style type="text/css">
	.st0{fill:#3399FF;stroke:#0099FF;stroke-width:7;stroke-miterlimit:10;}
	.st1{fill:#FFFF99;stroke:#FFFF99;stroke-width:7;stroke-miterlimit:10;}
</style>
<path class="st0" d="M170.9,135.3c-4.3,9-9.8,17.8-16.3,26.4c12.5,8.6,27.9,19.9,46.3,33.8c3.5,3.2,5.3,6.4,5.3,9.6
	c0,5-2.4,7.4-7.2,7.4c-2.2,0-4.4-0.9-6.5-2.6l-46.1-38.2c-14.4,16.8-32.3,32.4-53.8,46.8c-1,0.6-1.9,1-2.9,1c-1.8,0-3.4-0.7-4.9-2.2
	c-1.5-1.4-2.3-3-2.3-4.8c0-1.8,0.9-3.3,2.6-4.6c34.6-25.8,57.7-51,69.4-75.6c0.8-1.8,1.2-3.5,1.2-5.3c0-3.4-2.1-7.4-6.2-12
	c-0.8-0.8-1.2-1.8-1.2-3.1c0-1.6,0.7-3.1,2.2-4.6s3-2.2,4.8-2.2c1.1,0,2.2,0.3,3.1,1c9.6,7.2,14.4,14.2,14.4,20.9
	C172.8,129.8,172.1,132.6,170.9,135.3z M258.2,275.7c0,11.7-4.7,21.5-14,29.4S223.3,317,209.5,317c-13.3,0-25-3.4-35-10.3
	c-11.4-7.8-17-18.2-17-31c0-13,5.4-23.8,16.3-32.6c10.1-8.2,21.8-12.2,35-12.2c14.1,0,25.8,4.2,35.3,12.6
	C253.5,251.8,258.2,262.6,258.2,275.7z M242.4,275.7c0-8.6-2.9-16-8.6-22.1c-6.4-6.4-15-9.6-25.7-9.6c-9.6,0-17.8,3-24.5,8.9
	c-6.7,5.9-10.1,13.7-10.1,23.3c0,8.3,4.1,15.1,12.2,20.4c7,4.5,14.9,6.7,23.5,6.7c8.3,0,15.8-2.4,22.3-7.2
	C238.8,290.6,242.4,283.8,242.4,275.7z M245.3,166c-11,0.5-25.2,1.1-42.5,1.9c-4,0.2-7.2-0.7-9.6-2.5c-2.4-1.8-3.6-4-3.6-6.4
	c0-4.2,3-6.2,8.9-6.2l46.8-0.7v-36c0-4.8-4.2-10.6-12.5-17.3c-1.3-1-1.9-2.2-1.9-3.8c0-1.8,0.7-3.4,2-4.8c1.4-1.4,2.8-2.2,4.4-2.2
	c1,0,1.8,0.2,2.6,0.7c13.8,7.8,20.6,15.3,20.6,22.3v98.6c0,7.7-0.9,13.8-2.8,18.5c-1.8,4.6-4,7-6.4,7c-4.2,0-6.2-6.1-6.2-18.2V166z"
	/>
<path class="st0" d="M362.9,261.8v-49.7c0-5-2.4-9.7-7.2-14.2c-1-1-1.4-2.2-1.4-3.6c0-1.6,0.6-3.1,1.9-4.6c1.3-1.4,2.8-2.2,4.6-2.2
	c1,0,1.8,0.2,2.6,0.7c5.9,3.5,9.9,6.6,11.9,9.1c2,2.6,3,5.8,3,9.6v54.5h27.1c3.5,0,7,0,10.3,0v-56.6c0-5-2.4-9.7-7.2-14.2
	c-1-1-1.4-2.2-1.4-3.6c0-1.6,0.6-3.1,1.9-4.6c1.3-1.4,2.8-2.2,4.6-2.2c1,0,1.8,0.2,2.6,0.7c5.9,3.5,9.9,6.6,11.9,9.1
	c2,2.6,3,5.8,3,9.6V261c6.9-0.2,18.7-0.7,35.5-1.7c13-0.6,24.3-1,34.1-1c3.8,0,6.8,0.9,9,2.8c2.2,1.8,3.2,4,3.2,6.4
	c0,4.3-2.5,6.5-7.4,6.5l-100.1,0.2c-16.6,0.2-33.8,0.8-51.4,1.9c-16.6,1-30.2,1.4-40.6,1.4c-4.2,0-7.7-1.2-10.6-3.7
	c-2.9-2.5-4.3-5-4.3-7.6c0-2.9,1.8-4.3,5.3-4.3C313.1,262,332.8,261.9,362.9,261.8z M479,138.9c-2.7,18.9-7.3,46.1-13.7,81.6
	c-1.3,6.2-3.9,9.4-7.9,9.4c-1.9,0-3.5-1-4.7-3c-1.2-2-1.6-4.6-1.1-7.8c5.3-30.7,8.8-57.6,10.6-80.6c-31.7,0.8-71.6,2.1-119.8,3.8
	c-3.8,0.2-6.9-0.7-9.1-2.5c-2.2-1.8-3.4-3.9-3.4-6.1c0-3.5,2.1-5.4,6.2-5.5c33.4-0.6,76.5-1.8,129.1-3.6c9.8-0.6,14.6,2.3,14.6,8.9
	C480,135.1,479.7,137,479,138.9z"/>
<path class="st1" d="M648.2,141.8c-14.6,0.3-51.5,0.5-110.9,0.5c-3.8,0-6.9-1-9.2-2.9c-2.3-1.9-3.5-4.1-3.5-6.5
	c0-3.4,2.1-5.1,6.2-5.3c6.9-0.3,16.9-0.2,30,0.2c15.8,0.6,24.8,1,26.9,1c3.8,0,12.3-0.3,25.4-1c13.1-0.6,23.4-1,30.7-1
	c8,0,12,2.8,12,8.4C655.9,139.4,653.3,141.6,648.2,141.8z M631.7,183.8c0,9.4-3.9,17.3-11.8,23.6c-7.8,6.3-17.5,9.5-29,9.5
	c-11.4,0-21.2-2.8-29.5-8.4c-9.6-6.2-14.4-14.5-14.4-24.7c0-10.4,4.6-19.1,13.7-26.2c8.5-6.6,18.3-9.8,29.5-9.8
	c11.8,0,21.7,3.4,29.6,10.1C627.7,164.6,631.7,173.2,631.7,183.8z M613.9,102.9c5.1,0.2,7.7,2.5,7.7,7c0,4.2-2.7,6.4-8.2,6.7
	c-7.5,0.5-13.1,0.7-16.8,0.7c-12.6,0-23.4-2.2-32.2-6.7c-4.6-2.4-7-5-7-7.7c0-3.7,2.6-5.5,7.7-5.5c0.8,0,1.7,0.1,2.6,0.2
	C580.3,100.3,595.7,102.1,613.9,102.9z M615.8,183.5c0-6.2-2.2-11.4-6.7-15.6c-5-4.6-11.5-7-19.7-7c-7.2,0-13.4,2.1-18.6,6.2
	c-5.2,4.2-7.8,9.7-7.8,16.6c0,5.9,3.2,10.8,9.6,14.6c5.4,3.2,11.4,4.8,18,4.8c6.4,0,12.2-1.8,17.4-5.4
	C613.2,194.2,615.8,189.4,615.8,183.5z M697.4,309.8h-92.6c-13.8,0-21.5-5.4-23.3-16.1c-0.6-3.7-1.3-10.4-1.9-20.2
	c-5.9-1-8.9-3.8-8.9-8.4c0-3.8,2.3-5.8,7-5.8c2.2,0,8.3,0.2,18.1,0.5c9.8,0.3,16.7,0.5,20.5,0.5c4,0,13.1-0.2,27.4-0.7
	c17.3-0.6,28.1-1,32.4-1.2l0.2-19.2c-30.1,0-60.2,1.1-90.2,3.4c-3.8,0.3-6.9-0.4-9.1-2.3c-2.2-1.8-3.4-3.9-3.4-6.1
	c0-3.5,2.1-5.4,6.2-5.8c25.4-0.3,58.5-1.4,99.1-3.1c9.9-1,14.9,2.1,14.9,9.1c0,1.6-0.3,3.4-1,5.3l-2.6,20.2c3.4,1.6,5,4,5,7.2
	c0,4.5-2.5,6.7-7.4,6.7h-92.4c0.6,8.5,1.1,14.2,1.4,17.3c0.5,3.8,3.1,5.8,7.9,5.8c14.1,0,29.6-0.4,46.4-1.2
	c16.9-0.8,30.8-1.2,41.9-1.2c7.8,0,11.8,2.9,11.8,8.6C704.9,307.5,702.4,309.8,697.4,309.8z M692.6,197.7c0,7.7-0.9,13.8-2.8,18.5
	c-1.8,4.6-4,7-6.4,7c-4.2,0-6.2-6.1-6.2-18.2v-88.8c0-4.8-4.2-10.6-12.5-17.3c-1.3-1-1.9-2.2-1.9-3.8c0-1.8,0.7-3.4,2-4.8
	c1.4-1.4,2.8-2.2,4.4-2.2c1,0,1.8,0.2,2.6,0.7c13.8,7.8,20.6,15.3,20.6,22.3v50.6c16.3-1.1,27.7-1.7,34.1-1.7
	c7.8,0,11.8,2.9,11.8,8.6c0,4.5-2.5,6.7-7.4,6.7h-38.4V197.7z"/>
<path class="st1" d="M871.7,247.1c-35.4,5.8-62.6,9-81.6,9.8c-5.9,0.2-11.1-1.5-15.5-5c-4.4-3.5-6.9-8.4-7.6-14.6
	c-0.5-5-1.4-18.5-2.6-40.6c-7.5-0.2-11.3-2.9-11.3-8.2c0-3.7,2.3-5.7,7-6c10.4,0.2,24.1,0.1,41-0.2c5.1-0.5,13.1-1,24-1.7l2.4-37.4
	c-7,0.2-26.7,1.3-59,3.4c-3.8,0.3-6.9-0.4-9.1-2.3c-2.2-1.8-3.4-4-3.4-6.4c0-3.4,2.1-5.2,6.2-5.5c17.8-0.6,40.4-1.7,67.9-3.1
	c9.9-1,14.9,2.1,14.9,9.1c0,1.6-0.3,3.4-1,5.3l-5,37.2c5.1,1.1,7.7,3.5,7.7,7.2c0,4-2.6,6.1-7.7,6.2l-58.8,2.2
	c1,21.1,1.7,33.8,2.2,38.2c0.6,5.6,3.8,8.3,9.4,8.2c19.8-0.5,46.5-3.3,79.9-8.4V125.7c0-4.8-4.2-10.6-12.5-17.3
	c-1.3-1-1.9-2.2-1.9-3.8c0-1.8,0.7-3.4,2-4.8c1.4-1.4,2.8-2.2,4.4-2.2c1,0,1.8,0.2,2.6,0.7c13.8,7.8,20.6,15.3,20.6,22.3v70.1
	l27.8-0.5v-74.2c0-4.8-4.2-10.6-12.5-17.3c-1.3-1-1.9-2.2-1.9-3.8c0-1.8,0.7-3.4,2-4.8c1.4-1.4,2.8-2.2,4.4-2.2c1,0,1.8,0.2,2.6,0.7
	c13.8,7.8,20.6,15.3,20.6,22.3v182.6c0,7.7-0.9,13.8-2.8,18.5c-1.8,4.6-4,7-6.4,7c-4.2,0-6.2-6.1-6.2-18.2v-97l-27.8,0.5v82.1
	c0,7.7-0.9,13.8-2.8,18.5c-1.8,4.6-4,7-6.4,7c-4.2,0-6.2-6.1-6.2-18.2V247.1z"/>
</svg>
