<?xml version="1.0" encoding="utf-8"?>
<!-- Generator: Adobe Illustrator 22.1.0, SVG Export Plug-In . SVG Version: 6.00 Build 0)  -->
<svg version="1.1" id="Capa_1" xmlns="http://www.w3.org/2000/svg" xmlns:xlink="http://www.w3.org/1999/xlink" x="0px" y="0px"
	 viewBox="0 0 47.7 33" style="enable-background:new 0 0 47.7 33;" xml:space="preserve">
<style type="text/css">
	.st0{fill:#FFFF99;}
	.st1{fill:#FFFF99;stroke:#FFFF99;stroke-width:1.5353;stroke-miterlimit:10;}
	.st2{fill:#FFFF99;stroke:#FFFF99;stroke-width:0.7653;stroke-miterlimit:10;}
</style>
<path class="st0" d="M33.8,29.1"/>
<path class="st1" d="M16.6,4.4c1.3-1,3-1.4,5.1-1.1c1.9,0.2,3.5,1,4.5,2.2c1.1,1.2,1.5,2.6,1.3,4.2c-0.1,1.2-0.6,2.2-1.2,3
	c-0.7,0.8-1.6,1.4-2.6,1.9c-1.1,0.5-1.6,0.7-2.2,1.4c-0.5,0.6-0.6,1.2-0.7,1.6c0,0.1,0,1-0.7,1.4c-0.7,0.4-1.7,0.2-2.1-0.4
	c-0.4-0.7-0.1-1.5,0-1.5c0.1-0.3,0.3-0.8,0.6-1.3c0-0.1,0.3-0.7,0.7-1.1c0.6-0.7,1.5-1.3,2.6-1.8c1-0.4,1.7-0.9,2.1-1.4
	c0.4-0.5,0.7-1.2,0.8-2c0.1-1-0.1-1.8-0.7-2.5c-0.6-0.7-1.5-1.1-2.6-1.3c-1.2-0.1-2.1,0.1-2.9,0.6c-0.8,0.6-1.3,1.4-1.5,2.5
	c-0.1,0.8-0.9,1.4-1.6,1.2c-0.7-0.1-1.1-0.8-1-1.5c0.1-0.6,0.3-1.5,1-2.5C15.5,5.6,16,5,16.6,4.4z M16.7,27
	c-0.4-0.5-0.6-1.1-0.5-1.9c0.1-0.7,0.4-1.3,0.9-1.7c0.5-0.4,1.1-0.6,1.9-0.5c0.7,0.1,1.3,0.4,1.7,0.9c0.4,0.5,0.6,1.1,0.5,1.9
	c-0.1,0.7-0.4,1.3-0.9,1.7c-0.5,0.4-1.1,0.6-1.9,0.5C17.7,27.9,17.2,27.6,16.7,27z"/>
<path class="st2" d="M27.8,18.9c0.5-0.7,1.2-1.1,2.3-1.3c1-0.2,1.8-0.1,2.5,0.4c0.7,0.4,1.1,1,1.3,1.8c0.1,0.6,0.1,1.2-0.2,1.7
	s-0.5,0.9-1,1.3c-0.4,0.4-0.7,0.7-0.9,1c-0.1,0.3-0.2,0.6-0.1,1.1l0.1,0.5c0,0.3-0.2,0.6-0.5,0.7c-0.3,0.1-0.7-0.1-0.9-0.4
	c0-0.2-0.1-0.5-0.1-0.7c-0.1-0.5-0.1-1,0.1-1.4c0.2-0.4,0.5-0.8,1-1.3c0.4-0.4,0.7-0.7,0.8-1c0.1-0.3,0.2-0.7,0.1-1.1
	c-0.1-0.5-0.3-0.9-0.7-1.1c-0.4-0.3-0.9-0.3-1.5-0.2c-0.3,0-0.9,0.2-1.3,0.7c-0.5,0.6-0.4,1.3-0.4,1.4c0.2,0.3,0.1,0.8-0.3,0.9
	c-0.3,0.2-0.8,0-0.9-0.4c-0.1-0.3-0.3-0.9-0.1-1.7C27.4,19.6,27.6,19.3,27.8,18.9z M31.2,29.6c-0.3-0.2-0.4-0.5-0.5-0.8
	c-0.1-0.4,0-0.7,0.2-1c0.2-0.3,0.5-0.4,0.8-0.5c0.4-0.1,0.7,0,0.9,0.2c0.3,0.2,0.4,0.5,0.5,0.8c0.1,0.4,0,0.7-0.2,0.9
	c-0.2,0.3-0.5,0.4-0.8,0.5C31.8,29.8,31.4,29.7,31.2,29.6z"/>
</svg>
