<?xml version="1.0" encoding="utf-8"?>
<!-- Generator: Adobe Illustrator 22.1.0, SVG Export Plug-In . SVG Version: 6.00 Build 0)  -->
<svg version="1.1" id="Capa_1" xmlns="http://www.w3.org/2000/svg" xmlns:xlink="http://www.w3.org/1999/xlink" x="0px" y="0px"
	 viewBox="0 0 310.3 173.8" style="enable-background:new 0 0 310.3 173.8;" xml:space="preserve">
<style type="text/css">
	.st0{fill:#CC99FF;}
	.st1{font-family:'AppleSDGothicNeo-Bold-KSCpc-EUC-H';}
	.st2{font-size:10.2243px;}
	.st3{letter-spacing:1;}
	.st4{fill:none;stroke:#CC99FF;stroke-width:1.0291;stroke-miterlimit:10;}
	.st5{fill:#99FFFF;}
	.st6{fill:#CCCCCC;}
	.st7{fill:#66FFFF;stroke:#66FFFF;stroke-miterlimit:10;}
	.st8{font-family:'NanumGothicBold';}
	.st9{font-size:22px;}
	.st10{letter-spacing:2;}
	.st11{fill:#66FFFF;}
	.st12{fill:#99FFFF;stroke:#99FFFF;stroke-miterlimit:10;}
</style>
<text transform="matrix(1 0 0 1 66.5502 95.7082)" class="st0 st1 st2 st3">구전되어 내려오는 잘못된 성지식을 타파하는</text>
<text transform="matrix(1 0 0 1 59.7612 120.007)" class="st0 st1 st2 st3">내가 필요한 성지식을 파악하고 친절히 설명하는</text>
<text transform="matrix(1 0 0 1 57.9057 144.6174)" class="st0 st1 st2 st3">서로의 성 고민이 있다면 들어주고 상담도 해주는</text>
<g>
	<path class="st4" d="M51.7,97.6h-4.5c-1.9,0-3.4-1.5-3.4-3.4v-4.5c0-1.9,1.5-3.4,3.4-3.4h4.5c1.9,0,3.4,1.5,3.4,3.4v4.5
		C55.1,96.1,53.6,97.6,51.7,97.6z"/>
	<g>
		<path class="st5" d="M49.4,92.4c-0.2,0-0.4-0.1-0.6-0.4c-1.4-2.4-2.9-4.8-4.3-7.2c-0.1-0.2-0.3-0.7-0.1-1c0.1-0.2,0.4-0.3,0.5-0.3
			c0.3-0.1,0.6,0,0.7,0.2c0.1,0.1,0.2,0.2,0.3,0.4c0.1,0.1,0.1,0.2,0.2,0.3c1.1,1.9,2.2,3.8,3.3,5.8c2.5-4,4.3-7,4.7-7.5
			c0.3-0.4,0.6-0.5,0.7-0.5c0.2,0,0.3,0.1,0.4,0.2c0.3,0.3,0.1,1-0.4,1.8l-5,8C49.8,92.3,49.6,92.4,49.4,92.4z"/>
	</g>
</g>
<path class="st6" d="M55.6,89.3"/>
<g>
	<path class="st4" d="M45.7,122.2h-4.5c-1.9,0-3.4-1.5-3.4-3.4v-4.5c0-1.9,1.5-3.4,3.4-3.4h4.5c1.9,0,3.4,1.5,3.4,3.4v4.5
		C49.1,120.6,47.6,122.2,45.7,122.2z"/>
	<g>
		<path class="st5" d="M43.4,117c-0.2,0-0.4-0.1-0.6-0.4c-1.4-2.4-2.9-4.8-4.3-7.2c-0.1-0.2-0.3-0.7-0.1-1c0.1-0.2,0.4-0.3,0.5-0.3
			c0.3-0.1,0.6,0,0.7,0.2c0.1,0.1,0.2,0.2,0.3,0.4c0.1,0.1,0.1,0.2,0.2,0.3c1.1,1.9,2.2,3.8,3.3,5.8c2.5-4,4.3-7,4.7-7.5
			c0.3-0.4,0.6-0.5,0.7-0.5c0.2,0,0.3,0.1,0.4,0.2c0.3,0.3,0.1,1-0.4,1.8l-5,8C43.8,116.9,43.6,117,43.4,117z"/>
	</g>
</g>
<path class="st6" d="M47.6,113.3"/>
<g>
	<path class="st4" d="M44.4,146.8h-4.5c-1.9,0-3.4-1.5-3.4-3.4v-4.5c0-1.9,1.5-3.4,3.4-3.4h4.5c1.9,0,3.4,1.5,3.4,3.4v4.5
		C47.9,145.2,46.3,146.8,44.4,146.8z"/>
	<g>
		<path class="st5" d="M42.1,141.6c-0.2,0-0.4-0.1-0.6-0.4c-1.4-2.4-2.9-4.8-4.3-7.2c-0.1-0.2-0.3-0.7-0.1-1
			c0.1-0.2,0.4-0.3,0.5-0.3c0.3-0.1,0.6,0,0.7,0.2c0.1,0.1,0.2,0.2,0.3,0.4c0.1,0.1,0.1,0.2,0.2,0.3c1.1,1.9,2.2,3.8,3.3,5.8
			c2.5-4,4.3-7,4.7-7.5c0.3-0.4,0.6-0.5,0.7-0.5c0.2,0,0.3,0.1,0.4,0.2c0.3,0.3,0.1,1-0.4,1.8l-5,8
			C42.6,141.4,42.3,141.6,42.1,141.6z"/>
	</g>
</g>
<path class="st6" d="M50.4,138.5"/>
<g>
	<text transform="matrix(1 0 0 1 60.9784 41.9942)" class="st7 st8 st9 st10">성교를  알립니다!</text>
</g>
<path class="st11" d="M259.2,56.9h-214c-0.6-0.1-1-0.6-0.9-1.1c0-0.5,0.4-0.9,0.9-0.9c71.3,0,142.6,0,214,0c0,0,0.6,0.2,0.8,0.7
	C260.2,56.1,259.8,56.7,259.2,56.9z"/>
<path class="st12" d="M56.2,25.2c0.3-0.1,0.5-0.4,0.5-0.7c0-0.3-0.1-0.6-0.4-0.8l-2.4-1.4c-0.1-0.1-0.2-0.2-0.2-0.3l-0.2-2.8
	c0-0.3-0.2-0.6-0.5-0.7c-0.3-0.1-0.6-0.1-0.9,0.1l-2.1,1.8c-0.1,0.1-0.2,0.1-0.3,0.1l-2.7-0.7c-0.3-0.1-0.6,0-0.8,0.3
	C46,20.4,46,20.7,46.1,21l1.1,2.6c0,0.1,0,0.2,0,0.3l-1.5,2.4c-0.2,0.3-0.2,0.6,0,0.9c0.2,0.3,0.5,0.4,0.8,0.4l2.8-0.2
	c0.1,0,0.2,0,0.3,0.1l1.8,2.1c0.1,0.1,0.2,0.2,0.3,0.2c0.2,0.1,0.3,0.1,0.5,0c0.3-0.1,0.5-0.3,0.6-0.6l0.6-2.7
	c0-0.1,0.1-0.2,0.2-0.3L56.2,25.2z M52.9,26.4l-0.6,2.7c0,0.1-0.1,0.2-0.3,0.3c-0.1,0-0.3,0-0.4-0.1l-1.8-2.1
	c-0.1-0.1-0.2-0.2-0.3-0.2c-0.1-0.1-0.3-0.1-0.4-0.1l-2.8,0.2c-0.1,0-0.3-0.1-0.3-0.2c-0.1-0.1-0.1-0.3,0-0.4l1.5-2.4
	c0.1-0.2,0.2-0.5,0.1-0.8l-1.1-2.6c-0.1-0.1,0-0.3,0.1-0.4c0.1-0.1,0.2-0.1,0.4-0.1l2.7,0.7c0.3,0.1,0.5,0,0.7-0.2l2.1-1.8
	c0.1-0.1,0.2-0.1,0.4-0.1c0.1,0.1,0.2,0.2,0.2,0.3l0.2,2.8c0,0.3,0.2,0.5,0.4,0.6l2.4,1.4c0.1,0.1,0.2,0.2,0.2,0.3
	c0,0.1-0.1,0.3-0.2,0.3l-2.6,1C53.2,25.9,53,26.1,52.9,26.4z"/>
</svg>
