<?xml version="1.0" encoding="utf-8"?>
<!-- Generator: Adobe Illustrator 22.1.0, SVG Export Plug-In . SVG Version: 6.00 Build 0)  -->
<svg version="1.1" id="레이어_1" xmlns="http://www.w3.org/2000/svg" xmlns:xlink="http://www.w3.org/1999/xlink" x="0px"
	 y="0px" viewBox="0 0 1366 768" style="enable-background:new 0 0 1366 768;" xml:space="preserve">
<style type="text/css">
	.st0{fill:#6699FF;}
</style>
<g>
	<path class="st0" d="M97.9,417.2c-7.3-2-18.6-6.6-26.6-13.3c-6.6-6-11.3-13.3-10.6-22.6c2-45.9,25.3-136.9,37.2-174.8
		c10.6,2.7,27.2,8,37.9,11.3C124.5,265,100.6,353.4,97.9,417.2z M145.1,675.7c-2.7-129.6-4-401.4,17.9-574.2c10,0,31.9-0.7,43.2-0.7
		C189,265.7,184.3,550.1,190.3,675C177.7,675,156.4,675,145.1,675.7z M268.1,245.7c2,8-2.7,15.3-8.6,21.9
		c-6.6,6.6-14.6,12-21.3,16.6c-6-30.6-14-59.8-24.6-88.4c7.3-4.7,21.3-11.3,31.9-16.6C251.4,193.9,264.7,224.5,268.1,245.7z
		 M610.3,195.9c0.7,12.6,2,34.6,2,45.9c-35.9,0-103,0-146.2,4.7c0.7,37.2,1.3,112.3,0,148.9c29.2-0.7,95-2,128.9-3.3
		c0.7,8,0.7,33.9,0.7,44.5c-38.5,0-99.7,0.7-128.9,2.7c0,44.5-1.3,102.3-3.3,158.2c39.2-0.7,118.3-2,160.8-2v43.9
		c-131.6-3.3-259.8,8-383.4,26.6c0-9.3,0.7-19.9,4.7-29.2c3.3-8.6,9.3-17.3,20.6-19.3c41.2-8.6,104.3-12,148.9-15.9
		c5.3-53.2,6-122.3,6.6-158.2c-49.8,2.7-100.3,9.3-147.5,19.9c-2-8.6,0-19.3,2.7-28.6c3.3-10,9.3-17.9,17.9-19.9
		c27.9-6,82.4-12.6,126.9-15.3c0-37.2-0.7-115-1.3-148.2c-32.6,3.3-65.8,8.6-97.7,15.3c-12.6,35.2-22.6,72.4-31.9,109.7
		c-12.6-4-23.3-11.3-29.9-19.9s-9.3-18.6-6-28.6C274,269,302,198.6,328.5,136.8c8,1.3,29.9,6,40.5,7.3c-8,19.3-19.9,48.5-28.6,73.8
		c23.9-3.3,55.2-7.3,77.8-10c0-30.6-2-82.4-4-106.3c9.3,0.7,33.2,1.3,46.5,1.3c0.7,21.3,3.3,73.8,3.3,101
		C502,200.6,565.1,195.9,610.3,195.9z"/>
	<path class="st0" d="M840.2,330.1c-29.9,42.5-59.8,97.7-87.7,150.9c-8-4.7-16.6-10-21.9-16.6c-8-9.3-9.3-17.9-4.7-29.2
		c10.6-23.3,45.9-79.7,59.8-99.7c-20.6,0.7-46.5,4-63.8,7.3c0.7-8,2-17.3,4.7-25.3c3.3-8.6,8.6-15.3,18.6-17.3
		c21.3-3.3,49.8-6.6,68.4-7.3c10-15.9,31.9-49.2,43.2-64.5c10.6,4,28.6,12.6,38.5,19.9c-7.3,10-19.9,28.6-27.2,39.2
		c39.9-2,105.7-4,151.5-4.7c0.7,10.6,0.7,29.9,0.7,40.5C959.9,321.5,900.1,326.2,840.2,330.1z M922,526.2
		c8.6,27.9,16.6,59.1,10,89.7c-3.3,17.3-12.6,33.2-28.6,42.5c-17.3,10-39.2,10-59.1,6.6c-7.3-1.3-12-5.3-15.3-10.6
		c-6-8.6-7.3-21.3-8.6-31.2c13.3,2.7,35.9,4.7,46.5,3.3c10-1.3,20.6-7.3,22.6-17.9c4-24.6,0-49.8-6.6-72.4
		c-49.2,8-105,25.9-143.5,37.9c-0.7-8-2-17.3-0.7-25.9c1.3-10,5.3-18.6,16.6-21.9c35.9-12,81.1-21.9,110.3-28.6
		c-2.7-9.3-11.3-23.3-17.3-31.2c32.6-14.6,69.8-35.2,90.4-56.5c-30.6-2.7-87.7,6-136.9,17.9c0-6.6,0-17.3,2.7-26.6
		C807,392.6,811,386,819,384c47.8-12,100.3-14,149.5-13.3c12.6,0,23.3,8,27.9,17.9c4,8.6,3.3,19.3-4,27.9
		c-20.6,24.6-59.8,51.2-91.7,66.5l4,6c37.9-8,86.4-17.3,123.6-21.9c1.3,8,5.3,27.2,6.6,35.9C1001.7,508.2,955.9,518.2,922,526.2z
		 M1001.7,265c-39.2-27.9-79.7-51.2-120.9-73.8c-45.2,24.6-90.4,49.2-133.6,79.1c-4-8.6-8-17.9-8.6-27.2c-1.3-10,2-19.3,12.6-25.9
		c21.9-14,57.2-34.6,83.7-48.5c-20.6-11.3-55.2-26.6-77.8-35.2c7.3-11.3,14.6-21.9,23.3-33.2c29.2,12.6,69.8,31.2,99,45.2
		c23.9-12.6,65.1-33.9,93-45.9c8.6,7.3,21.9,20.6,29.9,29.9c-22.6,10-55.8,26.6-79.1,38.5c23.3,12,62.5,34.6,82.4,50.5
		c6.6,5.3,6.6,14.6,4.7,23.3C1009,250.4,1004.4,259.7,1001.7,265z M1262.2,229.8c-25.3,50.5-59.1,119.6-86.4,178.8
		c32.6,57.2,84.4,148.2,111.6,210.7c5.3,12,4,21.9-1.3,29.9s-14.6,14.6-24.6,20.6c-28.6-62.5-72.4-157.5-107-214
		c-32.6,70.4-64.5,142.2-91.7,214.6c-7.3-4.7-17.3-10.6-23.9-17.9c-6-7.3-9.3-15.9-5.3-26.6c19.3-54.5,69.8-166.1,93.7-216
		c-15.9-27.9-35.9-60.5-54.5-88.4c-3.3,8-8.6,23.3-11.3,30.6c-12-6.6-22.6-12-27.9-20.6c-5.3-9.3-4-20.6-0.7-30.6
		c15.9-47.8,55.8-142.9,83.7-202.7c9.3,2.7,27.9,8,39.2,11.3c-12,26.6-27.2,63.1-39.2,94.4c55.8-7.3,113.6-13.3,172.8-15.9
		c0,10,0.7,29.9,0.7,40.5C1282.2,229.1,1268.9,229.8,1262.2,229.8z M1098.8,248.4c-4,10.6-12.6,33.9-15.9,44.5c4-3.3,12-8,15.9-10
		c17.3,25.9,33.9,53.2,50.5,79.7c16.6-33.9,49.8-98.4,66.5-129.6C1177.2,235.8,1137.3,241.1,1098.8,248.4z"/>
</g>
</svg>
