<?xml version="1.0" encoding="utf-8"?>
<!-- Generator: Adobe Illustrator 22.1.0, SVG Export Plug-In . SVG Version: 6.00 Build 0)  -->
<svg version="1.1" id="레이어_1" xmlns="http://www.w3.org/2000/svg" xmlns:xlink="http://www.w3.org/1999/xlink" x="0px"
	 y="0px" viewBox="0 0 1366 768" style="enable-background:new 0 0 1366 768;" xml:space="preserve">
<style type="text/css">
	.st0{stroke:#000000;stroke-width:4.8043;stroke-miterlimit:10;}
	.st1{stroke:#000000;stroke-width:2.1838;stroke-miterlimit:10;}
	.st2{fill:#FF6666;}
	.st3{fill:#FFCCCC;stroke:#000000;stroke-width:5.6903;stroke-miterlimit:10;}
	.st4{fill:#996633;}
	.st5{stroke:#000000;stroke-width:3.064;stroke-miterlimit:10;}
	.st6{stroke:#000000;stroke-width:2.1886;stroke-miterlimit:10;}
</style>
<g>
	<path class="st0" d="M714,300.2c-19.4-8.8-41-11.4-61.9-7.3c-20.9-4.1-42.5-1.5-61.9,7.3c-31.7,15-50,50.7-50,98
		c0,47.4,26.1,87.5,66.5,102.1c14.6,4.9,29.9,7.3,45.3,6.9c15.4,0.3,30.7-2,45.3-6.9c40.4-14.6,66.5-54.7,66.5-102.1
		C764,351,745.7,315.2,714,300.2z M632.4,298.5c3.5,0,5.3,0,8,0.3c1.5,0.2,10,1.3,11.1,1.5c0.1,0,0.3,0.1,0.7,0.1
		c0.2,0,0.5,0,0.7-0.1c11.9-2.3,24.1-2.4,36-0.3c-8.6,1.4-16.5,5.5-22.7,11.7c-4.9,5.5-7.4,12.6-7.2,20c-1.6-1.1-3.3-2.1-5.1-3
		c-0.1,0-0.2,0-0.3-0.1c-0.9-0.3-1.9-0.3-2.8,0c-0.1,0-0.2,0-0.3,0.1c-1.7,0.9-3.4,1.9-5.1,3c0.2-7.3-2.4-14.5-7.2-20
		c-6.2-6.2-14.1-10.3-22.7-11.7C621,299.1,626.7,298.5,632.4,298.5z M685.7,395.5c0,40.3-32.1,41-33.5,41s-33.5-0.7-33.5-41
		c-0.1-24.3,12.7-46.7,33.5-59.1C672.9,348.8,685.6,371.3,685.7,395.5z M694.9,493.3c-13.7,4.9-28.3,6.8-42.8,6.5
		c-14.5,0.3-29-1.9-42.8-6.5c-37.4-13.5-61.6-50.8-61.6-95.1c0-60.6,28.6-83.2,45.7-91.3c0.8-0.4,1.6-0.7,2.4-1
		c0.2,0,0.4,0.1,0.6,0.1c0.2,0,25-1.6,36.1,10.8c4.8,5.9,6.6,13.7,4.8,21.1c-16.9,14.3-26.5,35.4-26.3,57.6
		c0,47.9,40.6,48.5,41,48.5s41-0.6,41-48.5c0.2-22.2-9.4-43.3-26.3-57.6c-1.8-7.4,0-15.2,4.8-21.1c11.1-12.4,35.9-10.8,36.1-10.8
		c0.2,0,0.4,0,0.6-0.1c0.8,0.4,1.7,0.7,2.5,1c17.1,8.1,45.7,30.6,45.7,91.3C756.5,422.7,749.7,473.6,694.9,493.3z"/>
	<path class="st1" d="M636.5,375.3c1.2-1.7,0.9-4-0.8-5.2c-1.6-1.2-4-0.9-5.2,0.8c-0.5,0.7-12.3,16.9-0.4,44.7
		c0.6,1.4,1.9,2.3,3.4,2.3c0.5,0,1-0.1,1.5-0.3c0.9-0.4,1.6-1.1,2-2s0.4-1.9,0-2.9C626.9,389.1,636.1,375.9,636.5,375.3z"/>
	<path class="st1" d="M651.2,350.8c-2,0.5-3.2,2.5-2.7,4.5c0,0.1,3.3,13.8-7.2,34.7c-0.9,1.8-0.2,4.1,1.7,5c1.8,0.9,4.1,0.2,5-1.7
		l0,0c11.7-23.3,7.9-39.2,7.7-39.8C655.3,351.6,653.2,350.4,651.2,350.8z"/>
	<path class="st1" d="M646.3,407.3c-1.1,0.7-1.8,2-1.7,3.3s0.9,2.5,2.1,3.1c1.2,0.6,2.6,0.5,3.7-0.3c14.1-8.6,22-24.6,20.2-41
		c-0.2-1-0.7-1.8-1.5-2.4s-1.8-0.8-2.8-0.6c-2,0.3-3.4,2.2-3.1,4.3C664.6,387.2,658,400.3,646.3,407.3z"/>
	<path class="st1" d="M669.1,407c-0.9,0.4-1.6,1.2-1.9,2.2c-3,9.1-15.9,12.4-16,12.5c-1.3,0.3-2.3,1.3-2.7,2.6
		c-0.4,1.3,0,2.7,0.9,3.6c0.9,1,2.3,1.3,3.6,1c0.7-0.2,16.9-4.4,21.3-17.3c0.3-0.9,0.2-2-0.2-2.8c-0.4-0.9-1.2-1.6-2.2-1.9
		C671,406.5,670,406.6,669.1,407z"/>
</g>
<g>
	<path d="M240.1,433.8c-1.8,0-3.5-0.6-5.1-1.8l-77.1-54.7c-19.5,21.1-42.3,40.2-68.6,57.1c-1.1,0.8-2.2,1.2-3.5,1.2
		c-4.8,0-7.2-2.5-7.2-7.5c0-2.4,1.2-4.5,3.5-6.3c36.4-26.5,61.3-50.2,74.7-71.2c1.6-2.6,2.4-4.6,2.4-6c0-2.6-2.7-7.3-8-14.1
		c-1.3-1.6-1.9-3.2-1.9-4.8c0-2,0.8-3.7,2.5-5.2s3.5-2.2,5.5-2.2c1.4,0,2.7,0.4,3.8,1.2c12.5,10.8,18.7,19.4,18.7,26
		c0,3.8-3.9,10.5-11.8,20c2.5,1.6,14.8,9.1,37,22.4c15.2,9,27.1,16.9,35.9,23.9c4.3,3.4,6.4,7.6,6.4,12.6
		C247.3,430.8,244.9,433.8,240.1,433.8z"/>
</g>
<g>
	<path d="M978.3,433.8c-2.1,0-3.8-1.7-4.8-5c-1.6-4-2.4-10.3-2.4-18.9v-73.3c-43,0.5-81.9,2.3-116.5,5.3c-4.1,0.5-7.5-0.7-10-3.6
		c-2.6-2.8-3.9-5.9-3.9-9.2c0-5.2,2.3-7.9,7-8.2c33.2-0.7,74.9-2.5,125.1-5.3c11.1-1.4,16.6,3.2,16.6,13.9c0,2.4-0.4,4.9-1.1,7.5
		v62.3c0,6.9-0.6,13.5-1.9,19.9C984.5,429,981.8,433.8,978.3,433.8z"/>
</g>
<g>
	<path d="M1213.8,463.2c-18.6,0.2-37.7,1.2-57.3,2.8c-18.6,1.4-33.7,2.1-45.3,2.1c-4.8,0-8.9-1.8-12.2-5.3c-3.3-3.6-5-7.2-5-11
		c0-4.5,2.1-6.8,6.4-6.8c8.4,0,32.1-0.1,71.2-0.4V403c0-7.3-2.7-14.3-8-21c-1.3-1.7-1.9-3.6-1.9-5.7c0-2.4,0.8-4.6,2.3-6.6
		s3.2-3,5-3c1.1,0,2.1,0.4,3.2,1.1c6.4,5.2,10.8,9.7,13.1,13.3c2.3,3.7,3.5,8.5,3.5,14.4v48.7h24.9c9.6,0,18.8-0.1,27.6-0.4v-48
		c0-7.3-2.7-14.3-8-21c-1.3-1.7-1.9-3.6-1.9-5.7c0-2.4,0.8-4.6,2.3-6.6s3.2-3,5-3c1.1,0,2.1,0.4,3.2,1.1c6.4,5.2,10.8,9.7,13.1,13.3
		c2.3,3.7,3.5,8.5,3.5,14.4v54.4c34.8-2.1,55.4-3.2,61.6-3.2c4.1,0,7.4,1.4,9.8,4.3c2.4,2.8,3.6,6,3.6,9.6c0,6.2-2.7,9.2-8,9.2
		L1213.8,463.2z"/>
</g>
<g>
	<path d="M416.8,473.5c-2.1,0-3.8-1-4.8-3.1c-1.6-2.5-2.4-6.4-2.4-11.6v-97.1c-12.9,0.4-29.6,1-50.1,1.8c-4.3,0.1-7.7-0.6-10.3-2.3
		c-2.6-1.7-3.9-3.6-3.9-5.8c0-3.8,3.1-5.7,9.4-5.7l54.9-0.7v-59.3c0-4.2-4.6-9.5-13.9-15.8c-1.8-1-2.7-2.3-2.7-3.7
		c0-1.5,0.8-2.9,2.5-4.2c1.7-1.3,3.5-2,5.5-2c1.1,0,2,0.2,2.7,0.7c15.4,7,23,13.8,23,20.4v167.2c0,4.2-0.6,8.3-1.9,12.3
		C423.1,470.5,420.4,473.5,416.8,473.5z"/>
</g>
<g>
	<path class="st2" d="M619.3,299.5c3.7-0.5,8.9-1.3,15.1-2.1c32.8-4.4,40.4-3.9,44.9,0.8c2.3,2.4,4.6,6.8,3.2,9.1
		c-1.1,1.9-4.2,1.7-6.4,2c-8.8,1.4-8.2,13.9-16,18.6c-2.8,1.7-7.6,3.1-16,0.6"/>
	<path class="st3" d="M588.2,303.7c-4.6,2.4-9.6,6.8-11.1,8.1c0,0-6.6,5.8-12.1,13.4c-14.3,19.7-19,50.2-19.4,53.6
		c-1.6,11-3.3,22.6-1.3,36.9c3.3,23.3,16.8,54.9,48,74c31.8,19.4,64.1,13.8,82.6,10.6c11-1.9,26.5-4.7,42.5-15.9
		c16.1-11.3,24.8-25.6,29.3-33.1c3.4-5.6,7.6-12.9,10.6-23.2c4.2-14.5,3.2-26,1.5-44.5c-1.9-20-2.8-30.1-8.6-42.2
		c-3.3-6.8-9.5-19.5-23.5-28.8c-6.3-4.2-20.8-13.9-36.9-9.1c-2.4,0.7-12.6,3.8-18.2,12.9c-4.9,8.1-3.2,16.2-7.4,17.5
		c-4.1,1.2-7.7-6.5-13.6-5.5c-4.6,0.8-6.1,6.1-8.4,5.5c-2.8-0.7-0.7-9.2-3.5-16.2C632.7,302.8,604.5,295.3,588.2,303.7z"/>
	<path class="st4" d="M646.8,336c-11.4,2.1-17.6,13.5-22.8,23.4c-3.1,5.7-9.5,18.3-8.9,35.6c0.4,9.7,1,27.1,14.5,37.9
		c12.2,9.8,26.7,7.8,28,7.7c17.1-2.5,25.6-16.7,27.1-19.3c8.1-13.5,5.6-27.4,3.5-39.4c-1.8-10-5.3-29.8-21.5-40.4
		C663.2,339.3,655.7,334.4,646.8,336z"/>
	<path class="st5" d="M714.1,299.7c-19.4-8.8-41.1-11.4-62-7.4c-20.9-4.1-42.6-1.5-62,7.3C558.3,314.7,540,350.6,540,398
		c0,47.5,26.2,87.7,66.6,102.3c14.6,4.9,30,7.3,45.4,6.9c15.4,0.4,30.8-2,45.4-6.9c40.4-14.6,66.6-54.8,66.6-102.3
		C764.1,350.6,745.9,314.7,714.1,299.7z M632.2,298c3.5,0,5.3,0,8.1,0.3c1.5,0.2,10,1.3,11.1,1.5c0.1,0,0.4,0.1,0.7,0.1
		c0.2,0,0.5,0,0.7-0.1c11.9-2.3,24.1-2.4,36-0.3c-8.6,1.4-16.6,5.6-22.8,11.8c-4.9,5.5-7.4,12.7-7.3,20c-1.6-1.1-3.3-2.1-5.1-3
		c-0.1,0-0.2,0-0.3-0.1c-0.9-0.4-1.9-0.4-2.8,0c-0.1,0-0.2,0-0.3,0.1c-1.8,0.9-3.5,1.9-5.1,3c0.2-7.4-2.4-14.5-7.3-20
		c-6.2-6.2-14.1-10.3-22.8-11.8C620.9,298.6,626.6,298,632.2,298z M685.7,395.2c0,40.4-32.2,41.1-33.6,41.1
		c-1.4,0-33.6-0.7-33.6-41.1c-0.1-24.3,12.7-46.8,33.6-59.2C672.9,348.4,685.6,370.9,685.7,395.2z M695,493.2
		c-13.7,4.9-28.3,6.8-42.9,6.5c-14.6,0.4-29.1-1.8-42.9-6.5c-37.5-13.5-61.7-50.9-61.7-95.3c0-60.8,28.7-83.4,45.8-91.5
		c0.8-0.4,1.6-0.7,2.4-1.1c0.2,0,0.4,0.1,0.7,0.1c0.3,0,25-1.6,36.2,10.8c4.8,5.9,6.6,13.7,4.8,21.1c-16.9,14.4-26.6,35.5-26.4,57.7
		c0,48,40.7,48.5,41.1,48.5c0.4,0,41.1-0.6,41.1-48.5c0.2-22.2-9.4-43.3-26.4-57.7c-1.8-7.4,0-15.2,4.8-21.1
		c11.1-12.5,35.9-10.9,36.2-10.9c0.2,0,0.4,0,0.6-0.1c0.8,0.4,1.7,0.7,2.5,1.1c17.1,8.1,45.8,30.7,45.8,91.5
		C756.6,422.4,749.9,473.5,695,493.2z"/>
	<path class="st6" d="M636.4,375c1.2-1.7,0.9-4-0.8-5.2c-1.7-1.2-4-0.9-5.2,0.7c-0.5,0.7-12.3,17-0.4,44.8c0.6,1.4,1.9,2.3,3.4,2.3
		c0.5,0,1-0.1,1.5-0.3c0.9-0.4,1.6-1.1,2-2.1c0.4-0.9,0.4-1.9,0-2.8C626.7,388.8,636,375.5,636.4,375z"/>
	<path class="st6" d="M651.2,350.5c-2,0.5-3.2,2.5-2.7,4.5c0,0.1,3.3,13.8-7.2,34.8c-0.9,1.8-0.2,4.1,1.7,5c1.8,0.9,4.1,0.2,5-1.7
		l0,0c11.7-23.4,7.9-39.3,7.7-39.9C655.2,351.2,653.2,349.9,651.2,350.5z"/>
	<path class="st6" d="M646.3,407c-1.1,0.7-1.8,2-1.7,3.4c0,1.4,0.9,2.5,2.1,3.1c1.2,0.6,2.6,0.5,3.8-0.3
		c14.1-8.6,22.1-24.6,20.3-41.1c-0.2-1-0.7-1.8-1.5-2.4s-1.8-0.8-2.8-0.7c-2,0.4-3.4,2.2-3.1,4.3C664.6,386.9,657.9,400,646.3,407z"
		/>
	<path class="st6" d="M669.1,406.8c-0.9,0.4-1.6,1.2-1.9,2.1c-3,9.1-15.9,12.5-16.1,12.5c-1.3,0.3-2.3,1.3-2.7,2.6s0,2.7,0.9,3.6
		c0.9,1,2.3,1.4,3.6,1c0.7-0.2,17-4.4,21.3-17.4c0.3-0.9,0.3-2-0.2-2.8c-0.4-0.9-1.2-1.6-2.1-1.9C671,406.2,670,406.3,669.1,406.8z"
		/>
</g>
</svg>
