<svg xmlns="http://www.w3.org/2000/svg" data-name="Layer 1" viewBox="0 0 100 125" x="0px" y="0px"><title>stngs</title><path d="M95.74,58l-3-3.24a42.5,42.5,0,0,0,0-9.43l3-3.22c1.79-1.91,5-4.44,4-6.85l-4.11-10c-1-2.41-5.08-1.91-7.69-2l-4.43-.16a43.24,43.24,0,0,0-6.64-6.66l-0.14-4.43c-0.08-2.6.43-6.69-2-7.69l-10-4.15c-2.4-1-4.95,2.25-6.85,4l-3.23,3a42.49,42.49,0,0,0-9.44,0l-3.21-3c-1.9-1.78-4.44-5-6.85-4l-10,4.11c-2.41,1-1.9,5.09-2,7.69l-0.16,4.42a43.24,43.24,0,0,0-6.67,6.65l-4.42.14c-2.6.08-6.69-.43-7.69,2l-4.15,10c-1,2.4,2.25,4.94,4,6.84l3,3.23a42.49,42.49,0,0,0,0,9.44l-3,3.22c-1.78,1.9-5,4.43-4,6.84l4.11,10c1,2.41,5.09,1.91,7.7,2l4.41,0.15a43.24,43.24,0,0,0,6.66,6.68l0.13,4.41c0.08,2.6-.43,6.7,2,7.7l10,4.15c2.4,1,4.94-2.25,6.84-4l3.24-3a42.5,42.5,0,0,0,9.42,0l3.22,3c1.91,1.79,4.43,5,6.84,4l10-4.11c2.41-1,1.91-5.08,2-7.7l0.15-4.42a43.24,43.24,0,0,0,6.68-6.65l4.42-.14c2.6-.08,6.7.43,7.7-2l4.15-10C100.77,62.46,97.51,59.92,95.74,58ZM50,73.7C37.34,73.7,27.09,63.09,27.09,50S37.34,26.3,50,26.3,72.91,36.91,72.91,50,62.66,73.7,50,73.7Z" fill="#3a5f7b"/></svg>