<?xml version="1.0" encoding="utf-8"?>
<!-- Generator: Adobe Illustrator 22.1.0, SVG Export Plug-In . SVG Version: 6.00 Build 0)  -->
<svg version="1.1" id="Capa_1" xmlns="http://www.w3.org/2000/svg" xmlns:xlink="http://www.w3.org/1999/xlink" x="0px" y="0px"
	 viewBox="0 0 190.5 128.8" style="enable-background:new 0 0 190.5 128.8;" xml:space="preserve">
<style type="text/css">
	.st0{fill:#FFFF99;}
</style>
<path class="st0" d="M81,124.9"/>
<g>
	<path class="st0" d="M67,115.3c0.2,0,0.4-0.1,0.6-0.2c0.2-0.1,0.2-0.3,0.2-0.6c0-0.2-0.1-0.4-0.2-0.6c-0.1-0.2-0.3-0.1-0.6-0.1
		c-0.2,0-0.4,0.1-0.6,0.2c-0.1,0.1-0.2,0.3-0.2,0.6c0,0.2,0.1,0.4,0.2,0.6C66.6,115.3,66.8,115.3,67,115.3z"/>
	<g>
		<path class="st0" d="M59.8,39.6c-0.3-0.5-0.6-0.9-1-1.1c-0.4-0.3-0.8-0.4-1.4-0.4c-0.5,0-0.9,0.1-1.3,0.4c-0.4,0.3-0.7,0.7-1,1.1
			c-0.3,0.5-0.5,1.1-0.7,1.8c-0.2,0.7-0.2,1.4-0.2,2.2c0,0.8,0.1,1.5,0.2,2.2c0.2,0.7,0.4,1.2,0.7,1.7c0.3,0.5,0.6,0.9,1,1.2
			c0.4,0.3,0.8,0.4,1.3,0.4c0.5,0,1-0.1,1.4-0.4c0.4-0.3,0.7-0.7,1-1.2c0.3-0.5,0.5-1.1,0.7-1.7c0.2-0.7,0.2-1.4,0.2-2.2
			c0-0.8-0.1-1.6-0.2-2.2C60.3,40.7,60.1,40.1,59.8,39.6z"/>
		<path class="st0" d="M102.5,71.1c-0.3-0.5-0.6-0.9-1-1.2c-0.4-0.3-0.8-0.4-1.3-0.4c-0.5,0-0.9,0.1-1.3,0.4c-0.4,0.3-0.7,0.7-1,1.2
			c-0.3,0.5-0.5,1.1-0.7,1.8S97,74.4,97,75.3c0,0.8,0.1,1.6,0.2,2.3c0.2,0.7,0.4,1.3,0.7,1.8c0.3,0.5,0.6,0.9,1,1.2
			c0.4,0.3,0.8,0.4,1.3,0.4c0.5,0,0.9-0.1,1.3-0.4c0.4-0.3,0.7-0.7,1-1.2c0.3-0.5,0.5-1.1,0.7-1.8c0.2-0.7,0.2-1.4,0.2-2.2
			c0-0.8-0.1-1.6-0.2-2.3C103,72.2,102.8,71.6,102.5,71.1z"/>
		<path class="st0" d="M92.8,9.7c-42.1,0-74.6,22.1-74.6,51.4c0,29.3,32.1,51,75,51c0.4,0,0.4,0,0.8,0c0.4,0,0.8,0,1.6,0
			c0.4,0,0.8,0,1.6,0c0.4,0,0.8,0,1.2,0c0,0,0.8,0,2,0c0.4,0,0.8,0,1.6,0.4c0.4,0,0.4,0,0.8,0c1.2,0.4,2.4,0.4,2.4,0.4
			c2.4,0.4,26.1,7.2,35.3,10c0,0,0.4,0,0.8,0.4c0.8,0,1.6,0,2,0c0.8-0.4,0.8-0.8,0.4-2c-1.6-3.2-3.2-6.8-5.2-10
			c-0.4-1.2-0.4-2.8,0-4.8c1.2-2.8,3.6-4.8,4.4-6c5.6-5.2,15.7-12.4,16.5-14c5.6-7.2,8.4-16.1,8.4-25.7
			C167.9,31.4,135.8,9.7,92.8,9.7z M97.9,55.8C98,55.9,98,56,98,56.2v1.8c0,0.4-0.2,0.5-0.5,0.5h-15c-0.4,0-0.7,0-1-0.1
			c-0.2-0.1-0.4-0.2-0.6-0.3c-0.1-0.1-0.2-0.3-0.3-0.5c0-0.2-0.1-0.5-0.1-0.8v-3.4c0-0.3,0-0.6,0.1-0.8c0-0.2,0.1-0.4,0.3-0.5
			c0.1-0.1,0.3-0.2,0.6-0.3s0.6-0.1,1-0.1h10.8c0.2,0,0.3-0.1,0.3-0.3v-0.7c0-0.2-0.1-0.3-0.3-0.3H81.1c-0.2,0-0.3,0-0.4-0.1
			c-0.1-0.1-0.1-0.2-0.1-0.4v-1.8c0-0.3,0.2-0.5,0.6-0.5h14.2c0.4,0,0.8,0,1,0.1c0.3,0.1,0.5,0.2,0.6,0.3c0.1,0.1,0.2,0.3,0.3,0.5
			c0,0.2,0.1,0.5,0.1,0.8v3.5c0,0.4,0,0.6-0.1,0.9c0,0.2-0.1,0.4-0.3,0.5c-0.1,0.1-0.3,0.2-0.6,0.2c-0.2,0-0.6,0.1-1,0.1H84.7
			c-0.2,0-0.3,0.1-0.3,0.3v0.7c0,0.2,0.1,0.3,0.3,0.3h12.7C97.7,55.7,97.8,55.8,97.9,55.8z M87.9,65.3v12.7c0,0.3-0.2,0.5-0.6,0.5
			h-2.8c-0.2,0-0.4,0-0.4-0.1c-0.1-0.1-0.1-0.2-0.1-0.4V65.3c0-0.2,0-0.3,0.1-0.4c0.1-0.1,0.2-0.1,0.4-0.1h2.8c0.2,0,0.3,0,0.4,0.1
			C87.9,65,87.9,65.1,87.9,65.3z M89.3,38.9c0-0.2,0-0.3,0.1-0.4c0.1-0.1,0.2-0.1,0.4-0.1h3.7v-4.7c0-0.2,0.1-0.4,0.2-0.4
			s0.2-0.1,0.4-0.1h2.8c0.2,0,0.4,0,0.4,0.1c0,0.1,0.1,0.2,0.1,0.4v12.1c0,0.3-0.2,0.5-0.5,0.5h-2.8c-0.4,0-0.5-0.2-0.5-0.5v-4.5
			h-3.7c-0.2,0-0.3,0-0.4-0.1c-0.1-0.1-0.1-0.2-0.1-0.4V38.9z M77,40c0-0.6,0.1-0.9,0.4-1.1c0.2-0.2,0.7-0.3,1.3-0.3h5.1
			c0.2,0,0.3,0,0.3-0.1c0,0,0.1-0.1,0.1-0.3v-1.1c0-0.2,0-0.3-0.1-0.3c0,0-0.2-0.1-0.3-0.1h-6.1c-0.4,0-0.6-0.2-0.6-0.5v-1.9
			c0-0.3,0.2-0.5,0.6-0.5h8.4c0.8,0,1.3,0.1,1.5,0.4S88,35,88,35.7v3.8c0,0.7-0.1,1.2-0.4,1.5c-0.3,0.2-0.8,0.4-1.4,0.4h-4.9
			c-0.2,0-0.4,0.1-0.4,0.3V43c0,0.2,0.1,0.3,0.4,0.3c1.3,0,2.6,0,3.9-0.1s2.7-0.3,4.1-0.5c0.2,0,0.3,0,0.4,0s0.1,0.2,0.1,0.3
			l0.3,1.8c0,0.2,0,0.3,0,0.4c-0.1,0.1-0.2,0.1-0.4,0.1c-1.7,0.3-3.4,0.5-5.1,0.6c-1.7,0.1-3.5,0.2-5.5,0.1c-0.8,0-1.3-0.2-1.6-0.4
			C77.2,45.4,77,45,77,44.3V40z M67.4,33.7c0-0.2,0-0.3,0.1-0.4c0.1-0.1,0.2-0.1,0.4-0.1h2.8c0.2,0,0.3,0,0.4,0.1
			c0.1,0.1,0.1,0.2,0.1,0.4V58c0,0.2,0,0.3-0.1,0.4s-0.2,0.1-0.4,0.1h-2.8c-0.2,0-0.3,0-0.4-0.1c-0.1-0.1-0.1-0.2-0.1-0.4V33.7z
			 M64,47.1c-0.3,1.1-0.8,2-1.4,2.7s-1.4,1.3-2.2,1.8s-1.9,0.6-3,0.6c-1.1,0-2.1-0.2-2.9-0.6c-0.9-0.4-1.6-1-2.2-1.8
			s-1.1-1.7-1.4-2.7s-0.5-2.2-0.5-3.5c0-1.3,0.2-2.5,0.5-3.6c0.3-1.1,0.8-2,1.4-2.8s1.4-1.4,2.2-1.8c0.9-0.4,1.8-0.6,2.9-0.6
			c1.1,0,2.1,0.2,3,0.6s1.6,1,2.2,1.8S63.7,39,64,40c0.3,1.1,0.5,2.3,0.5,3.6S64.3,46.1,64,47.1z M67,71.9c0-0.8,0.2-1.6,0.5-2.3
			s0.8-1.4,1.4-1.9c0.6-0.6,1.3-1,2.2-1.3c0.8-0.3,1.8-0.5,2.8-0.5c1,0,2,0.2,2.8,0.5c0.9,0.3,1.6,0.8,2.2,1.3
			c0.6,0.6,1.1,1.2,1.4,1.9s0.5,1.5,0.5,2.3c0,0.8-0.2,1.6-0.5,2.3c-0.3,0.7-0.8,1.4-1.4,1.9c-0.6,0.6-1.3,1-2.2,1.3
			C75.9,77.8,75,78,74,78c-1,0-2-0.2-2.8-0.5c-0.8-0.3-1.6-0.8-2.2-1.3c-0.6-0.6-1.1-1.2-1.4-1.9C67.2,73.5,67,72.7,67,71.9z
			 M90.9,88l-1.2,1.8C89.5,90,89.2,90.1,89,90c-0.8-0.4-1.6-0.9-2.4-1.6c-0.8-0.7-1.4-1.5-2-2.4c-0.6,0.9-1.3,1.8-2,2.4
			c-0.8,0.7-1.5,1.2-2.2,1.6c-0.4,0.2-0.7,0.2-1.1,0c-0.7-0.3-1.5-0.8-2.2-1.5s-1.4-1.4-1.9-2.2c-0.6,0.8-1.3,1.6-2,2.3
			c-0.8,0.7-1.6,1.2-2.6,1.6c-0.2,0.1-0.4,0.1-0.5,0.1s-0.2-0.1-0.3-0.2l-1.3-1.8c-0.2-0.3-0.1-0.5,0.2-0.7c1.5-0.8,2.7-1.8,3.5-2.9
			c0.8-1.2,1.2-2.6,1.2-4.2c0-0.1,0-0.2,0.1-0.3c0-0.1,0.2-0.1,0.5-0.1l2.7,0c0.3,0,0.4,0.1,0.4,0.4c0,0.3,0,0.6,0,0.9
			s-0.1,0.6-0.1,0.9c0.2,0.8,0.5,1.6,1,2.2s1,1.2,1.7,1.6c0.1,0.1,0.3,0.1,0.3,0.1c0.1,0,0.2,0,0.2-0.1c0.8-0.6,1.4-1.4,1.9-2.4
			c0.5-1,0.7-2.2,0.7-3.5c0-0.3,0.2-0.4,0.5-0.4l2.6,0c0.2,0,0.3,0,0.4,0.1c0.1,0,0.1,0.2,0.1,0.3c0,0.3,0,0.5,0,0.8
			c0,0.3,0,0.5-0.1,0.8c0.4,1.4,1,2.5,1.8,3.3c0.8,0.9,1.7,1.6,2.8,2.1c0.2,0.1,0.3,0.2,0.3,0.4C91,87.8,91,87.9,90.9,88z
			 M114.5,89.6c0,0.2,0,0.3-0.1,0.4s-0.2,0.1-0.4,0.1h-2.8c-0.2,0-0.3,0-0.4-0.1c-0.1-0.1-0.1-0.2-0.1-0.4V76.7h-3.6
			c-0.1,1.1-0.4,2.1-0.7,3c-0.4,0.9-0.9,1.7-1.4,2.3c-0.6,0.7-1.3,1.2-2.1,1.5c-0.8,0.4-1.7,0.5-2.7,0.5c-1.1,0-2-0.2-2.9-0.7
			s-1.6-1.1-2.2-1.9c-0.6-0.8-1.1-1.7-1.4-2.8c-0.3-1.1-0.5-2.2-0.5-3.5c0-1.3,0.2-2.5,0.5-3.6c0.3-1.1,0.8-2,1.4-2.8
			c0.6-0.8,1.3-1.4,2.2-1.9c0.9-0.4,1.8-0.7,2.9-0.7c1,0,1.8,0.2,2.6,0.5s1.5,0.9,2.1,1.5c0.6,0.6,1.1,1.4,1.4,2.3
			c0.4,0.9,0.6,1.9,0.8,3h3.6v-8.4c0-0.2,0-0.3,0.1-0.4c0.1-0.1,0.2-0.1,0.4-0.1h2.8c0.2,0,0.3,0,0.4,0.1c0.1,0.1,0.1,0.2,0.1,0.4
			V89.6z M115.8,51.1c-0.1,0.1-0.2,0.1-0.4,0.2c-0.3,0.1-0.6,0.1-1,0.2c-0.4,0-0.7,0.1-1.1,0.1c-0.4,0-0.7,0-1.1,0
			c-0.3,0-0.6,0-0.9-0.1c-0.6-0.1-1-0.2-1.4-0.5c-0.3-0.2-0.5-0.7-0.5-1.3V36.9c0-0.3,0-0.6,0.1-0.8c0.1-0.2,0.2-0.4,0.3-0.5
			c0.1-0.1,0.3-0.2,0.6-0.3c0.3,0,0.6-0.1,0.9-0.1h3.6c0.2,0,0.3,0,0.4,0.1c0.1,0.1,0.1,0.2,0.1,0.4v2.1c0,0.2,0,0.3-0.1,0.4
			c-0.1,0.1-0.2,0.1-0.4,0.1h-1.7c-0.2,0-0.3,0-0.3,0.1c0,0.1-0.1,0.2-0.1,0.3v9.5c0,0.3,0.1,0.4,0.4,0.4c0.3,0,0.6,0,0.9,0
			c0.3,0,0.6-0.1,1-0.1c0.3,0,0.5,0.1,0.5,0.3l0.2,2C115.8,50.9,115.8,51,115.8,51.1z M122.7,51.3c-0.3,0.1-0.6,0.1-1,0.2
			c-0.4,0-0.8,0.1-1.2,0.1s-0.8,0-1.2,0.1c-0.4,0-0.7,0-1,0c-0.6,0-1-0.2-1.4-0.4c-0.3-0.3-0.5-0.7-0.5-1.3V36.9
			c0-0.7,0.1-1.1,0.4-1.4c0.3-0.2,0.8-0.3,1.5-0.3h3.6c0.2,0,0.3,0,0.4,0.1c0.1,0.1,0.1,0.2,0.1,0.4v2.1c0,0.2,0,0.3-0.1,0.4
			c-0.1,0.1-0.2,0.1-0.4,0.1h-1.8c-0.2,0-0.3,0-0.3,0.1c0,0.1-0.1,0.2-0.1,0.3v9.6c0,0.3,0.1,0.4,0.4,0.4c0.4,0,0.8,0,1.2,0
			c0.4,0,0.7-0.1,1.1-0.2c0.2,0,0.3,0,0.4,0c0.1,0.1,0.1,0.1,0.1,0.3l0.2,2C123.2,51,123,51.2,122.7,51.3z M132.9,58
			c0,0.2,0,0.3-0.1,0.4c-0.1,0.1-0.2,0.1-0.4,0.1h-2.5c-0.2,0-0.3,0-0.4-0.1c-0.1-0.1-0.1-0.2-0.1-0.4V45.7h-1.9V57
			c0,0.2,0,0.4-0.1,0.4c-0.1,0-0.2,0.1-0.4,0.1h-2.4c-0.2,0-0.3,0-0.4-0.1c-0.1,0-0.1-0.2-0.1-0.4V34.2c0-0.2,0-0.3,0.1-0.4
			c0.1-0.1,0.2-0.1,0.4-0.1h2.4c0.2,0,0.3,0,0.4,0.1c0.1,0.1,0.1,0.2,0.1,0.4v8.5h1.9v-9c0-0.2,0-0.3,0.1-0.4s0.2-0.1,0.4-0.1h2.5
			c0.2,0,0.3,0,0.4,0.1c0.1,0.1,0.1,0.2,0.1,0.4V58z"/>
		<path class="st0" d="M71.6,74c0.3,0.3,0.6,0.5,1,0.6c0.4,0.2,0.8,0.2,1.3,0.2s0.9-0.1,1.3-0.2c0.4-0.2,0.8-0.4,1-0.6
			c0.3-0.3,0.5-0.6,0.7-0.9c0.2-0.4,0.2-0.7,0.2-1.1c0-0.4-0.1-0.8-0.2-1.2c-0.2-0.4-0.4-0.7-0.7-1c-0.3-0.3-0.6-0.5-1-0.6
			c-0.4-0.2-0.9-0.2-1.3-0.2S73,69,72.6,69.1c-0.4,0.2-0.7,0.4-1,0.6s-0.5,0.6-0.7,1s-0.2,0.8-0.2,1.2c0,0.4,0.1,0.8,0.2,1.1
			C71.1,73.4,71.4,73.7,71.6,74z"/>
	</g>
</g>
</svg>
