<svg xmlns="http://www.w3.org/2000/svg" xmlns:xlink="http://www.w3.org/1999/xlink" version="1.1" x="0px" y="0px" viewBox="0 0 100 125" enable-background="new 0 0 100 100" xml:space="preserve"><path d="M64.55,7.74v6.77H75.73l-8.15,8.15c-0.13-0.11-0.271-0.22-0.41-0.32c-0.36-0.27-0.71-0.53-1.06-0.79  c-0.54-0.39-1.101-0.75-1.67-1.09c-0.37-0.23-0.761-0.45-1.15-0.66c-0.19-0.11-0.39-0.21-0.59-0.31c-0.21-0.11-0.42-0.22-0.641-0.32  c-0.18-0.09-0.369-0.18-0.56-0.26c-0.43-0.2-0.88-0.39-1.34-0.56c-0.36-0.14-0.72-0.27-1.09-0.4c-0.44-0.16-0.9-0.3-1.351-0.42  c-0.189-0.06-0.38-0.11-0.569-0.16c-0.33-0.09-0.681-0.17-1.021-0.24c-0.29-0.07-0.58-0.13-0.88-0.18c-0.13-0.03-0.27-0.05-0.4-0.07  c-0.33-0.06-0.67-0.11-1-0.15c-0.399-0.06-0.8-0.11-1.199-0.14c-0.271-0.02-0.54-0.04-0.811-0.05c-0.07-0.01-0.149-0.02-0.229-0.02  c-0.16-0.01-0.32-0.01-0.49-0.02c-0.3-0.01-0.6-0.02-0.91-0.02c0,0,0,0-0.01,0c-3.99,0-7.78,0.85-11.2,2.39  c-0.02,0.01-0.05,0.02-0.07,0.03c-0.01,0-0.01,0.01-0.02,0.01c-0.05,0.02-0.09,0.04-0.14,0.06c-0.19,0.09-0.38,0.18-0.56,0.26  c-0.37,0.18-0.74,0.37-1.1,0.57c-0.04,0.02-0.09,0.05-0.13,0.07c-0.35,0.19-0.69,0.38-1.02,0.59c-0.38,0.23-0.75,0.47-1.12,0.71  c-0.73,0.5-1.44,1.03-2.12,1.59l-0.64-0.64l4.911-4.901l-4.84-4.84L27.25,17.28l-2.71-2.71h4.18V7.81H12.99v15.74h6.76v-4.19  l2.71,2.71l-4.911,4.911l4.84,4.83L27.3,26.91l0.77,0.76c-0.35,0.48-0.68,0.97-1.02,1.48c-0.47,0.74-0.92,1.51-1.32,2.3  c-0.3,0.59-0.58,1.19-0.85,1.81c-0.26,0.62-0.5,1.25-0.71,1.89c-0.14,0.42-0.27,0.85-0.4,1.28c-0.68,2.39-1.04,4.91-1.04,7.53  c0,0.38,0,0.76,0.03,1.14c0,0.12,0,0.24,0.01,0.36c0.01,0.3,0.04,0.6,0.06,0.89c0.01,0.13,0.02,0.25,0.03,0.36  c0.01,0.02,0.01,0.04,0.01,0.05c0.04,0.36,0.08,0.72,0.13,1.07c0.04,0.33,0.09,0.66,0.16,0.98c0.02,0.14,0.05,0.27,0.08,0.41  c0.06,0.37,0.15,0.74,0.23,1.1c0.09,0.39,0.19,0.78,0.3,1.161c0.25,0.869,0.53,1.72,0.86,2.55c0.13,0.33,0.27,0.649,0.41,0.97  c0.17,0.39,0.35,0.78,0.54,1.16c0.18,0.37,0.37,0.729,0.57,1.09c0.2,0.35,0.4,0.71,0.62,1.06c0.18,0.311,0.38,0.601,0.58,0.9  c0.51,0.78,1.07,1.51,1.66,2.23c0.22,0.26,0.44,0.52,0.67,0.779c0.27,0.311,0.55,0.61,0.83,0.9c0.28,0.29,0.57,0.57,0.87,0.85  c0.3,0.28,0.6,0.55,0.91,0.82c0.61,0.53,1.26,1.03,1.92,1.51c0.03,0.01,0.06,0.04,0.09,0.07c0.29,0.2,0.58,0.399,0.88,0.6  c0.01,0,0.04,0.021,0.06,0.03c0.33,0.22,0.67,0.43,1.02,0.63c0.34,0.2,0.7,0.4,1.05,0.601c0.01,0,0.02,0.01,0.03,0.01  c0.71,0.38,1.44,0.72,2.17,1.04c0.02,0,0.03,0.01,0.04,0.01c0.3,0.13,0.61,0.25,0.9,0.36c0.15,0.06,0.3,0.109,0.45,0.159  c0.71,0.261,1.44,0.5,2.19,0.69c0.38,0.1,0.77,0.2,1.17,0.28c0.03,0.01,0.06,0.02,0.09,0.029c0.81,0.171,1.63,0.311,2.47,0.41v5.851  h-8.41v6.77h8.41v8.42h6.77v-8.42H62v-6.77h-8.41V71.22c0.42-0.05,0.84-0.109,1.26-0.18s0.83-0.15,1.24-0.24s0.82-0.189,1.23-0.3  c0.34-0.09,0.67-0.19,1.01-0.29c0.03-0.01,0.06-0.02,0.09-0.03c0.01,0,0.03-0.01,0.04-0.01c0.01-0.01,0.021-0.01,0.04-0.01  c0.09-0.03,0.19-0.061,0.28-0.101c0.06-0.01,0.12-0.029,0.17-0.05c0.24-0.08,0.47-0.16,0.7-0.25c0.02,0,0.029-0.01,0.04-0.01  c0.729-0.28,1.449-0.57,2.14-0.89c0.09-0.04,0.18-0.08,0.27-0.13c0.021-0.011,0.04-0.021,0.061-0.03c0.26-0.12,0.51-0.25,0.77-0.391  c0.09-0.04,0.19-0.09,0.28-0.14c0.45-0.25,0.9-0.51,1.33-0.77c0.22-0.141,0.44-0.271,0.65-0.41c0.18-0.12,0.34-0.25,0.52-0.37  c0.08-0.061,0.17-0.12,0.26-0.18c0.03-0.03,0.07-0.061,0.101-0.07c0.14-0.11,0.29-0.22,0.43-0.33c1-0.74,1.96-1.521,2.85-2.38  c0.261-0.25,0.5-0.5,0.761-0.76C70.59,62.39,71.06,61.85,71.52,61.3c0.771-0.95,1.471-1.95,2.11-2.99  c0.43-0.699,0.83-1.409,1.19-2.149c0.18-0.37,0.359-0.74,0.529-1.12c0.21-0.47,0.4-0.95,0.591-1.43c0.359-0.971,0.67-1.96,0.92-2.98  c0.13-0.5,0.239-1.02,0.34-1.54c0.31-1.66,0.479-3.38,0.479-5.13V43.6c0-0.12,0-0.23-0.01-0.35c-0.02-0.48-0.04-0.94-0.07-1.41  c-0.02-0.21-0.04-0.41-0.06-0.61c-0.04-0.51-0.11-1.01-0.18-1.52c-0.04-0.21-0.07-0.41-0.11-0.62c-0.04-0.22-0.08-0.45-0.13-0.67  c-0.04-0.23-0.09-0.45-0.15-0.68c-0.04-0.21-0.1-0.43-0.149-0.65c-0.061-0.22-0.12-0.44-0.181-0.66  c-0.069-0.21-0.13-0.43-0.199-0.64c-0.061-0.22-0.131-0.44-0.2-0.65c-0.07-0.21-0.15-0.42-0.23-0.63  c-0.069-0.21-0.16-0.43-0.24-0.63c-0.079-0.21-0.159-0.41-0.25-0.62c-0.079-0.2-0.18-0.41-0.27-0.61c-0.13-0.31-0.28-0.62-0.43-0.92  c-0.09-0.18-0.181-0.35-0.271-0.52c-0.479-0.9-1-1.77-1.569-2.61c-0.101-0.17-0.211-0.33-0.33-0.48c-0.12-0.19-0.261-0.37-0.4-0.56  l8.27-8.27v11.2h6.761V7.74H64.55z M47.15,22.99c0-0.32,0.05-0.62,0.14-0.91c0.02-0.09,0.06-0.19,0.1-0.28  c0.08-0.18,0.17-0.35,0.28-0.52c0.11-0.16,0.24-0.32,0.38-0.45c0.21-0.21,0.45-0.38,0.7-0.52c0.06-0.04,0.13-0.07,0.19-0.09  c0.04-0.02,0.08-0.04,0.12-0.05c0.35-0.15,0.74-0.23,1.14-0.23c0.32,0,0.63,0.05,0.92,0.13c0.18,0.07,0.36,0.14,0.54,0.24  c0.26,0.14,0.49,0.31,0.7,0.52c0.069,0.07,0.14,0.15,0.199,0.22c0.44,0.52,0.7,1.2,0.7,1.94v10.38c0,0.75-0.26,1.42-0.7,1.94  c-0.06,0.08-0.13,0.15-0.199,0.22c-0.07,0.07-0.141,0.14-0.221,0.2c-0.149,0.13-0.3,0.24-0.47,0.33h-0.01  c-0.03,0.01-0.05,0.03-0.08,0.03c-0.01,0.01-0.01,0.02-0.021,0.02c-0.01,0-0.029,0.01-0.04,0.02c-0.079,0.04-0.17,0.08-0.26,0.11  c-0.14,0.06-0.28,0.1-0.43,0.13c-0.2,0.04-0.41,0.06-0.63,0.06c-0.21,0-0.42-0.02-0.61-0.06c-0.3-0.07-0.58-0.17-0.84-0.31  c-0.17-0.09-0.33-0.2-0.49-0.33c-0.07-0.06-0.14-0.13-0.21-0.2c-0.14-0.13-0.27-0.29-0.38-0.45s-0.2-0.34-0.28-0.52  c-0.04-0.09-0.08-0.18-0.1-0.28c-0.09-0.28-0.14-0.59-0.14-0.9V22.99z M69.74,50.23c-0.391,1.24-0.91,2.43-1.521,3.56  c-0.069,0.14-0.149,0.27-0.229,0.41c0,0.01,0,0.01,0,0.01c-0.141,0.25-0.29,0.49-0.45,0.74c-0.46,0.72-0.97,1.42-1.521,2.09  c-0.42,0.51-0.859,1-1.319,1.46c-0.521,0.52-1.07,1.02-1.65,1.48c-0.2,0.159-0.39,0.31-0.59,0.449c-0.44,0.34-0.9,0.65-1.38,0.94  c-0.08,0.06-0.17,0.12-0.26,0.17c-0.04,0.03-0.08,0.05-0.13,0.07c-0.28,0.17-0.57,0.34-0.86,0.5c-0.46,0.25-0.94,0.479-1.43,0.689  c-0.011,0-0.011,0.01-0.021,0.01c-0.22,0.101-0.439,0.19-0.67,0.28c-0.229,0.101-0.46,0.19-0.7,0.271s-0.479,0.159-0.72,0.229  c-0.32,0.101-0.64,0.19-0.97,0.28c-0.2,0.05-0.41,0.1-0.62,0.149c-1.44,0.33-2.95,0.5-4.49,0.5c-1.69,0-3.33-0.199-4.9-0.6  c-0.17-0.04-0.33-0.08-0.5-0.13c-0.24-0.05-0.47-0.13-0.7-0.2c-0.76-0.24-1.5-0.52-2.22-0.84c-0.5-0.21-0.97-0.46-1.44-0.71  c-0.58-0.32-1.16-0.66-1.7-1.03c-0.51-0.35-1.02-0.72-1.49-1.109c-1.05-0.851-2.01-1.811-2.87-2.86c-0.42-0.5-0.81-1.03-1.17-1.57  c-0.19-0.27-0.37-0.55-0.54-0.84c-0.36-0.58-0.69-1.18-0.98-1.8c-0.2-0.41-0.38-0.82-0.54-1.25c-0.44-1.07-0.77-2.17-1.01-3.31  c-0.05-0.23-0.1-0.47-0.13-0.7c-0.21-1.15-0.31-2.34-0.31-3.55c0-3.43,0.86-6.74,2.43-9.67c0.52-0.98,1.12-1.91,1.8-2.79  c0.13-0.17,0.27-0.35,0.41-0.53c0.28-0.33,0.57-0.67,0.88-0.99c0.14-0.17,0.3-0.33,0.46-0.49c1.26-1.27,2.69-2.37,4.28-3.28  c0.07-0.04,0.15-0.09,0.23-0.12c0.01,0,0.02,0,0.03-0.01c0.15-0.08,0.31-0.14,0.48-0.18c0.65-0.17,1.33-0.12,1.92,0.13  c0.25,0.08,0.48,0.22,0.69,0.38c0,0.01,0,0.01,0.01,0c0.08,0.06,0.15,0.12,0.23,0.2c0.22,0.19,0.42,0.44,0.58,0.72  c0.44,0.76,0.52,1.62,0.27,2.4c-0.05,0.19-0.12,0.37-0.22,0.55c-0.14,0.26-0.32,0.51-0.53,0.72c-0.19,0.19-0.41,0.36-0.65,0.5  c-1.11,0.64-2.11,1.43-3,2.31c-0.14,0.14-0.29,0.3-0.44,0.46c-0.14,0.16-0.28,0.32-0.43,0.48c0,0,0,0,0,0.01  c-0.13,0.16-0.25,0.33-0.39,0.49c0,0,0,0,0,0.01c-0.13,0.17-0.26,0.34-0.38,0.51v0.01c-0.49,0.71-0.91,1.45-1.26,2.23  c-0.2,0.42-0.37,0.85-0.52,1.3c-0.1,0.3-0.19,0.59-0.28,0.89c-0.32,1.21-0.5,2.47-0.5,3.76c0,4.71,2.28,8.9,5.79,11.52  c0.37,0.28,0.75,0.54,1.14,0.78c0.65,0.39,1.34,0.729,2.05,1.029c0.37,0.15,0.75,0.28,1.14,0.4c0.33,0.11,0.68,0.2,1.02,0.29  c1.05,0.24,2.13,0.36,3.25,0.36c1.72,0,3.38-0.311,4.92-0.86c0.01,0,0.02-0.01,0.03-0.01c0.109-0.04,0.22-0.08,0.33-0.12  c0.039-0.021,0.079-0.03,0.109-0.05c0.12-0.051,0.25-0.101,0.37-0.15c0.17-0.08,0.33-0.15,0.48-0.229  c0.09-0.04,0.18-0.08,0.26-0.131c0.22-0.109,0.439-0.229,0.649-0.35c0.061-0.04,0.12-0.07,0.181-0.11  c0.01-0.01,0.029-0.02,0.04-0.029c0.43-0.25,0.84-0.521,1.239-0.82c0.37-0.271,0.73-0.57,1.061-0.88  c0.35-0.311,0.67-0.63,0.979-0.98c0.311-0.33,0.61-0.689,0.881-1.06c0.189-0.25,0.369-0.521,0.55-0.79  c0.34-0.53,0.66-1.09,0.93-1.66c0.21-0.44,0.4-0.88,0.56-1.34c0.211-0.6,0.381-1.23,0.521-1.87c0.1-0.49,0.18-0.98,0.229-1.48  c0.051-0.48,0.07-0.97,0.07-1.46c0-0.72-0.05-1.44-0.149-2.13c-0.11-0.71-0.271-1.4-0.471-2.08c-0.14-0.44-0.29-0.88-0.47-1.31  c0,0-0.01,0-0.01-0.01c-0.12-0.28-0.25-0.56-0.391-0.84c-0.619-1.24-1.409-2.41-2.369-3.43c-0.101-0.12-0.221-0.25-0.341-0.35  c-0.88-0.89-1.89-1.67-2.989-2.31c-0.25-0.14-0.46-0.31-0.65-0.5s-0.36-0.41-0.48-0.64c-0.52-0.91-0.56-2.06,0-3.03  c0.08-0.13,0.15-0.24,0.24-0.35s0.181-0.22,0.271-0.3c0.189-0.19,0.399-0.35,0.63-0.48c0.01,0,0.01-0.01,0.02-0.01  c0.04-0.02,0.08-0.05,0.13-0.06c0.881-0.45,1.96-0.45,2.881,0.08c1.579,0.91,3.01,2.01,4.27,3.28c0.24,0.24,0.47,0.48,0.69,0.73  c0.46,0.5,0.88,1.01,1.27,1.55c1.39,1.86,2.45,3.96,3.14,6.21c0.19,0.63,0.36,1.28,0.49,1.94c0.271,1.32,0.41,2.67,0.41,4.04  C70.71,46.18,70.37,48.27,69.74,50.23z" fill="white"/></svg>