<?xml version="1.0" encoding="utf-8"?>
<!-- Generator: Adobe Illustrator 22.1.0, SVG Export Plug-In . SVG Version: 6.00 Build 0)  -->
<svg version="1.1" xmlns="http://www.w3.org/2000/svg" xmlns:xlink="http://www.w3.org/1999/xlink" x="0px" y="0px"
	 viewBox="0 0 327.2 235.2" style="enable-background:new 0 0 327.2 235.2;" xml:space="preserve">
<style type="text/css">
	.st0{fill:#EEEEEE;}
</style>
<g id="레이어_1">
	<path class="st0" d="M144.6,31.1c0.9,1.6,2.4,4.2,4.3,7.7c-2-0.9-2.8-1.2-4.4-2c0.1,1.9,0.3,3.2,0.2,4.5c-0.1,1.2-0.8,2.4-0.9,3.6
		c-0.1,1.5-0.1,3.1,0.4,4.4c1.5,3.6,3.2,7.1,5,10.6c1.7,3.2,1.1,5.7-1.6,7.8c-4.8,3.8-9.6,7.5-14.4,11.2
		c-7.5,5.8-14.9,11.7-22.5,17.6c-0.2-2.1-0.5-4.6-0.7-7.1c-0.3,0-0.6,0-0.9-0.1c-0.1,0.4-0.3,0.9-0.3,1.3c0.5,5.8-0.8,10.8-4.2,15.8
		c-2,2.9-2.9,6.9-3.3,10.5c-0.7,6.8,1.5,9.8,8.1,12.7c0,1.6,0,3.2,0,4.9c-0.1,1.7-0.2,3.4-0.3,5.3c23.8,4.8,46.7,13,71.2,13
		c11.8,0,20.4,6,25.1,17.4c-3.6-2.8-6.2-4.9-8.8-7c-0.3,0.2-0.6,0.4-0.9,0.6c2.5,4.1,4.9,8.1,7.4,12.2c-0.2,0.2-0.5,0.4-0.7,0.5
		c-2.6-2.5-5.2-5-7.8-7.4c-0.3,0.2-0.5,0.4-0.8,0.6c2.2,3.3,4.4,6.6,6.6,9.8c-0.4,0.3-0.7,0.6-1.1,0.9c-2.5-2.9-5.1-5.8-7.6-8.8
		c-0.4,0.3-0.7,0.7-1.1,1c2.5,3.1,4.9,6.1,7.4,9.2c-0.3,0.3-0.6,0.6-0.9,0.9c-2.3-1.7-4.4-3.8-6.9-5c-4.2-1.9-8.6-3.2-12.9-4.8
		c-2.2-0.8-4.7-1.4-6.5-2.8c-5.6-4.2-10.9-8.7-16.5-13c-1.3-1-3.2-1.2-4.8-1.7c-0.3,0.4-0.6,0.8-1,1.2c2,2.7,3.9,5.3,6.1,8.3
		c-4.3-1.1-8.3-2.2-13.5-3.6c1.1,2.8,1.6,4,2.1,5.1c-2-0.2-4-0.4-7.3-0.7c1.9,2.3,2.9,3.6,3.6,4.5c-1.2,1-2.4,2.1-3.7,3
		c-0.7,0.5-1.5,1-2.3,0.9c-13.1-0.9-26.1-1.8-39.1-2.9c-4.7-0.4-7.9-3.2-9-7.7c-2.3-9.5-4.8-19-6-28.7c-2.1-16.7-3.7-33.5-4.5-50.3
		c-0.3-6,1.2-12.5,3.2-18.3C82,55.5,91,50,101.8,47.2c6.6-1.8,13.5-3,19.8-5.4C129.4,38.8,136.8,34.8,144.6,31.1z"/>
	<path class="st0" d="M139.9,178.9c3.5,0.4,6.9,0.8,10.4,1.1c0.1-0.2,0.1-0.4,0.2-0.6c-4-1.7-7.9-3.5-11.9-5.2
		c0.1-0.4,0.2-0.8,0.3-1.2c4,0.8,8,1.7,12,2.5c0.1-0.2,0.2-0.5,0.3-0.7c-3.2-1.8-6.5-3.5-9.7-5.3c0.1-0.3,0.3-0.6,0.4-0.9
		c4.1,1.1,8.2,2.2,12.3,3.3c0.1-0.3,0.3-0.6,0.4-0.9c-3.4-2-6.7-4-10.1-6c0.1-0.3,0.3-0.7,0.4-1c4.7,1.6,9.3,3.2,14,4.8
		c0.3-0.3,0.6-0.7,0.9-1c-2.6-3-5.3-6-7.9-9c0.3-0.3,0.6-0.7,0.9-1c4.3,3.4,9,6.3,12.8,10.2c14.3,14.8,31.8,24.4,50.5,32.3
		c0.9,0.4,1.9,0.4,3.2-0.4c-4-1.9-7.9-3.9-12-5.6c-8.4-3.6-12-4.4-4.5-13.8c3.2-4,1.1-5.6,0-8.7c1.5,0,2.9,0,5.1,0
		c-1.3-3.5-2.4-6.4-3.2-8.6c2.3-1.5,4.7-2.4,6.1-4.1c4.5-5.5,7.4-11.5,4.1-18.9c-0.5-1.1,0.3-2.9,0.4-4.3c1.4,0.2,3,0.1,4.2,0.7
		c3.7,1.9,7.4,3.6,7.2,9c-0.7,20.4-1,40.8-1.5,61.2c-0.1,2-0.7,4-1.2,6c-3.2,12.3-10.1,14.8-21.6,9c-6.7-3.4-12.4-8.8-18.4-13.6
		c-3.9-3.1-7.6-6.6-10.9-10.3c-8.1-9.1-18.4-14.2-30.1-16.9c-1.1-0.3-2.2-0.8-3.3-1.3C139.8,179.4,139.9,179.2,139.9,178.9z"/>
	<path class="st0" d="M148.1,106.2c1.7-1.6,3.2-3.1,4.7-4.5c1.4-1.3,2.7-2.5,4.1-3.8c-0.4-0.4-0.7-0.8-1.1-1.2c-3.4,3-6.8,6-10.2,9
		c-5.8,5.2-11.4,10.6-17.4,15.6c-5,4.2-10.8,6.9-17.6,6.4c-4.7-0.3-6.9-2.5-7.6-7.3c-1-7.6,2.3-13.6,6.8-19.2
		c8.7-11,20.6-18,31.5-26.4c1.7-1.3,3.5-2.6,5.2-4c6.1-5.2,6.1-5.7,3.5-13.1c-0.5-1.6,0.8-3.8,0.4-5.5c-0.6-2.4-2-4.6-2.9-6.9
		c-0.6-1.4-0.9-2.8-0.5-4.6c0.9,1.6,1.7,3.2,2.6,4.8c0.8,1.4,1.6,2.8,3.3,3.9c-1.1-3.4-2.1-6.9-3.2-10.3c0.3-0.1,0.6-0.2,0.9-0.3
		c1.7,3.1,3.4,6.1,5.1,9.2c0.4-0.1,0.7-0.3,1.1-0.4c-0.9-3-1.8-5.9-2.7-8.9c0.2-0.1,0.5-0.3,0.7-0.4c1.9,3.2,3.7,6.4,5.6,9.5
		c0.3-0.1,0.6-0.2,0.9-0.2c-0.7-2.9-1.4-5.9-2.3-9.8c10.2,13.9,10.3,27-0.3,40.5c-10,12.7-21,24.7-31.6,37c-0.3,0.3-0.4,0.8-0.6,1.3
		c5.9-1.4,32.8-33.7,40-48c6.2,2.3,7.8,6.3,5.7,14.2c-2.5,9.5-2.5,10.3,0.4,17.6c-4.9,3.1-9.8,6.2-14.7,9c-1,0.6-2.6,0.6-3.7,0.2
		C152.2,108.8,150.4,107.5,148.1,106.2z"/>
	<path class="st0" d="M201.7,48.7c-1.2,4.1-2.3,7.9-3.2,11.2c-2.5,0.3-4.7,0.6-6.9,1c0.1,0.5,0.2,1,0.3,1.5c0.6-0.2,1.4-0.8,1.8-0.7
		c6.2,2.1,6.9-2.2,7.7-6.4c0.3-1.4,0.4-3,1.2-4c1.1-1.2,2.7-2.3,4.3-2.5c1-0.1,2.7,1.2,3.2,2.2c2.7,6.4,6.5,11.7,12.4,15.4
		c3.9,2.4,3.8,5.4,1.5,8.7c-2.4,3.5-5.4,6.6-7.2,10.3c-2.6,5.4-4.4,11.2-6.6,17.1c-8.4-2.5-17.1-9.7-28.6-4
		c1.6-10.4,3.7-20-5.3-27.2c1.9-1.7,3.3-2.9,4.6-4.2c-3.8,1.5-7.3,3.3-11.1,0.5c-1-0.7-2.2-2.4-2-3.2c2.5-8.1-1.2-15-4.2-22
		c-0.2-0.4-0.3-0.9-0.6-1.8c1.7-1.1,3.4-2.5,5.3-3.3c3.3-1.4,5.4,0.1,6.3,3.4c0.5,1.8,0.5,3.7,1.2,5.5c1.4,3.8,3.7,4.5,6.9,2.2
		C191.9,42.2,191.9,42.2,201.7,48.7z"/>
	<path class="st0" d="M172.6,126.7c2.1-2.5,4.2-5.1,6.3-7.6c-0.2-0.3-0.5-0.7-0.7-1c-3.2,2.3-6.3,4.6-9.5,6.9
		c-0.2-0.2-0.4-0.5-0.6-0.7c2.1-2.5,4.3-5,6.4-7.5c-0.1-0.2-0.3-0.4-0.4-0.7c-3,1.9-6,3.9-9.1,5.8c-0.2-0.2-0.5-0.5-0.7-0.7
		c2.5-2.1,5-4.2,7.6-6.3c-0.4-0.5-0.8-1-1.3-1.5c-3.8,2.4-7.5,4.8-11.3,7.2c-0.4-0.5-0.9-0.9-1.3-1.4c3.1-2.5,6.2-5.1,9.3-7.6
		c-0.3-0.5-0.7-0.9-1-1.4c-3.8,2.2-7.6,4.4-11.4,6.6c-0.2-0.2-0.5-0.3-0.7-0.5c1.7-1.9,3.2-4.1,5.2-5.7c9.1-7.5,20-11.2,31.3-12.3
		c5.3-0.5,11.3,2.3,16.4,4.7c9.6,4.7,19.1,9.9,28.1,15.7c7.9,5,9.5,10.7,6.2,16.9c-2.3,4.4-5.3,5.5-10,4.2c-10-2.8-17.6-9.8-26-15.5
		c-0.5-0.4-1-0.8-1.5-1.2c-10.4-8.4-13.1-8.3-23.7-0.1c-2.1,1.7-4.4,3.1-6.6,4.6C173.2,127.3,172.9,127,172.6,126.7z"/>
	<path class="st0" d="M170.1,198.2c-17.6,1.3-34.6,2.6-52.1,3.9c1.4-9.5,2.5-17.6,3.8-25.9c5.6,0,11.3,0,17.9,0
		c-1.8,0.9-3,1.5-5.5,2.7c3.7,1.6,6.2,3.1,8.9,3.9c8.5,2.5,17.2,4.9,23.7,11.6C167.8,195.5,168.8,196.7,170.1,198.2z"/>
	<path class="st0" d="M120,175.8c-0.5,4.8-1,9.1-1.6,14.3c-12.7-2.7-24.5-5.3-36.7-7.9c1.2-5,2.2-9.3,3.2-13.9
		C95.3,176.2,107.6,174.8,120,175.8z"/>
	<path class="st0" d="M184.5,150.7c-12.5,1.2-25.5-1.4-38.4-3.9c-5.8-1.1-11.5-2.7-17.2-4.3c-1.1-0.3-2.1-1.5-3.1-2.3
		c1.1-0.7,2.1-1.8,3.2-1.9c9-0.6,18-1.3,27-1.4c5-0.1,9.4,2.3,13.6,5.4C174.3,145.9,179.9,148.2,184.5,150.7z"/>
	<path class="st0" d="M124.4,141c-5.2-0.9-9.3-1.5-13.3-2.2c0-3.3,0-6.2,0-8.8c3.8-0.8,7.3-1.6,11.3-2.5
		C123,131.8,123.7,136,124.4,141z"/>
	<path class="st0" d="M176.3,175.8c9.9-0.3,20.5,6.8,21,14.2C189.8,184.9,183,180.3,176.3,175.8z"/>
	<path class="st0" d="M186,121.7c7-4.9,8.9-4.6,13.1,1.1C195,122.5,190.8,122.1,186,121.7z"/>
	<path class="st0" d="M230.3,155.1c0,7.2,0,14.5,0,21.7c-0.1,0-0.2,0-0.3,0c0-7.3,0-14.6,0-21.9C230.1,155,230.2,155.1,230.3,155.1z
		"/>
</g>
<g id="레이어_2">
</g>
</svg>
